<svg width="20" height="23" viewBox="0 0 20 23" fill="none" xmlns="http://www.w3.org/2000/svg">
<g clip-path="url(#clip0_1_3379)">
<path d="M10 21.5C8.02219 21.5 6.08879 20.9135 4.4443 19.8147C2.79981 18.7159 1.51809 17.1541 0.761209 15.3268C0.00433283 13.4996 -0.193701 11.4889 0.192152 9.54908C0.578004 7.60927 1.53041 5.82745 2.92894 4.42892C4.32746 3.0304 6.10929 2.07799 8.0491 1.69214C9.98891 1.30629 11.9996 1.50432 13.8268 2.2612C15.6541 3.01807 17.2159 4.2998 18.3147 5.94429C19.4135 7.58878 20 9.52217 20 11.5C19.9973 14.1513 18.9429 16.6933 17.0681 18.5681C15.1933 20.4429 12.6513 21.4973 10 21.5V21.5ZM10 3.19491C8.35742 3.19491 6.75171 3.68199 5.38595 4.59456C4.02018 5.50714 2.9557 6.80421 2.32711 8.32177C1.69851 9.83932 1.53405 11.5092 1.8545 13.1202C2.17495 14.7313 2.96594 16.2111 4.12742 17.3726C5.28891 18.5341 6.76874 19.325 8.37976 19.6455C9.99079 19.9659 11.6607 19.8015 13.1782 19.1729C14.6958 18.5443 15.9929 17.4798 16.9054 16.114C17.818 14.7483 18.3051 13.1426 18.3051 11.5C18.3024 9.29817 17.4265 7.1873 15.8696 5.63038C14.3127 4.07346 12.2018 3.1976 10 3.19491V3.19491Z" fill="#494746"/>
<path d="M10 21.5C8.02219 21.5 6.08879 20.9135 4.4443 19.8147C2.79981 18.7159 1.51809 17.1541 0.761209 15.3268C0.00433283 13.4996 -0.193701 11.4889 0.192152 9.54908C0.578004 7.60927 1.53041 5.82745 2.92894 4.42892C4.32746 3.0304 6.10929 2.07799 8.0491 1.69214C9.98891 1.30629 11.9996 1.50432 13.8268 2.2612C15.6541 3.01807 17.2159 4.2998 18.3147 5.94429C19.4135 7.58878 20 9.52217 20 11.5C19.9973 14.1513 18.9429 16.6933 17.0681 18.5681C15.1933 20.4429 12.6513 21.4973 10 21.5V21.5ZM10 3.19491C8.35742 3.19491 6.75171 3.68199 5.38595 4.59456C4.02018 5.50714 2.9557 6.80421 2.32711 8.32177C1.69851 9.83932 1.53405 11.5092 1.8545 13.1202C2.17495 14.7313 2.96594 16.2111 4.12742 17.3726C5.28891 18.5341 6.76874 19.325 8.37976 19.6455C9.99079 19.9659 11.6607 19.8015 13.1782 19.1729C14.6958 18.5443 15.9929 17.4798 16.9054 16.114C17.818 14.7483 18.3051 13.1426 18.3051 11.5C18.3024 9.29817 17.4265 7.1873 15.8696 5.63038C14.3127 4.07346 12.2018 3.1976 10 3.19491V3.19491Z" fill="url(#paint0_linear_1_3379)"/>
<path d="M14.7763 19.0289C14.4375 18.0309 13.7946 17.1642 12.9379 16.5504C12.0813 15.9366 11.0539 15.6065 10 15.6065C8.94616 15.6065 7.91876 15.9366 7.0621 16.5504C6.20545 17.1642 5.56257 18.0309 5.22375 19.0289L3.62036 18.4831C4.07372 17.151 4.93271 15.9941 6.07684 15.1749C7.22098 14.3557 8.59285 13.9152 10 13.9152C11.4072 13.9152 12.7791 14.3557 13.9232 15.1749C15.0673 15.9941 15.9263 17.151 16.3797 18.4831L14.7763 19.0289Z" fill="#494746"/>
<path d="M14.7763 19.0289C14.4375 18.0309 13.7946 17.1642 12.9379 16.5504C12.0813 15.9366 11.0539 15.6065 10 15.6065C8.94616 15.6065 7.91876 15.9366 7.0621 16.5504C6.20545 17.1642 5.56257 18.0309 5.22375 19.0289L3.62036 18.4831C4.07372 17.151 4.93271 15.9941 6.07684 15.1749C7.22098 14.3557 8.59285 13.9152 10 13.9152C11.4072 13.9152 12.7791 14.3557 13.9232 15.1749C15.0673 15.9941 15.9263 17.151 16.3797 18.4831L14.7763 19.0289Z" fill="url(#paint1_linear_1_3379)"/>
<path d="M10 13.0492C9.27459 13.0492 8.56546 12.8341 7.96229 12.4311C7.35913 12.0281 6.88902 11.4552 6.61141 10.785C6.3338 10.1148 6.26117 9.37736 6.40269 8.66587C6.54421 7.95439 6.89354 7.30085 7.40649 6.7879C7.91944 6.27495 8.57298 5.92562 9.28446 5.7841C9.99594 5.64258 10.7334 5.71521 11.4036 5.99282C12.0738 6.27043 12.6467 6.74054 13.0497 7.3437C13.4527 7.94687 13.6678 8.656 13.6678 9.38143C13.6669 10.3539 13.2802 11.2863 12.5925 11.974C11.9049 12.6616 10.9725 13.0483 10 13.0492V13.0492ZM10 7.40854C9.60981 7.40854 9.22838 7.52425 8.90394 7.74103C8.5795 7.95782 8.32663 8.26594 8.17731 8.62644C8.02798 8.98693 7.98892 9.38361 8.06504 9.76632C8.14116 10.149 8.32906 10.5006 8.60497 10.7765C8.88089 11.0524 9.23242 11.2403 9.61512 11.3164C9.99782 11.3925 10.3945 11.3535 10.755 11.2041C11.1155 11.0548 11.4236 10.8019 11.6404 10.4775C11.8572 10.1531 11.9729 9.77162 11.9729 9.38143C11.972 8.85846 11.7639 8.35717 11.3941 7.98738C11.0243 7.61758 10.523 7.40944 10 7.40854V7.40854Z" fill="#494746"/>
<path d="M10 13.0492C9.27459 13.0492 8.56546 12.8341 7.96229 12.4311C7.35913 12.0281 6.88902 11.4552 6.61141 10.785C6.3338 10.1148 6.26117 9.37736 6.40269 8.66587C6.54421 7.95439 6.89354 7.30085 7.40649 6.7879C7.91944 6.27495 8.57298 5.92562 9.28446 5.7841C9.99594 5.64258 10.7334 5.71521 11.4036 5.99282C12.0738 6.27043 12.6467 6.74054 13.0497 7.3437C13.4527 7.94687 13.6678 8.656 13.6678 9.38143C13.6669 10.3539 13.2802 11.2863 12.5925 11.974C11.9049 12.6616 10.9725 13.0483 10 13.0492V13.0492ZM10 7.40854C9.60981 7.40854 9.22838 7.52425 8.90394 7.74103C8.5795 7.95782 8.32663 8.26594 8.17731 8.62644C8.02798 8.98693 7.98892 9.38361 8.06504 9.76632C8.14116 10.149 8.32906 10.5006 8.60497 10.7765C8.88089 11.0524 9.23242 11.2403 9.61512 11.3164C9.99782 11.3925 10.3945 11.3535 10.755 11.2041C11.1155 11.0548 11.4236 10.8019 11.6404 10.4775C11.8572 10.1531 11.9729 9.77162 11.9729 9.38143C11.972 8.85846 11.7639 8.35717 11.3941 7.98738C11.0243 7.61758 10.523 7.40944 10 7.40854V7.40854Z" fill="url(#paint2_linear_1_3379)"/>
</g>
<defs>
<linearGradient id="paint0_linear_1_3379" x1="-0.00268804" y1="11.4988" x2="20" y2="11.4988" gradientUnits="userSpaceOnUse">
<stop stop-color="#F87F3D"/>
<stop offset="1" stop-color="#FFB179"/>
</linearGradient>
<linearGradient id="paint1_linear_1_3379" x1="3.61865" y1="16.4718" x2="16.3797" y2="16.4718" gradientUnits="userSpaceOnUse">
<stop stop-color="#F87F3D"/>
<stop offset="1" stop-color="#FFB179"/>
</linearGradient>
<linearGradient id="paint2_linear_1_3379" x1="6.33123" y1="9.381" x2="13.6678" y2="9.381" gradientUnits="userSpaceOnUse">
<stop stop-color="#F87F3D"/>
<stop offset="1" stop-color="#FFB179"/>
</linearGradient>
<clipPath id="clip0_1_3379">
<rect width="20" height="23" fill="white"/>
</clipPath>
</defs>
</svg>
