<svg width="165" height="31" viewBox="0 0 165 31" fill="none" xmlns="http://www.w3.org/2000/svg">
<rect y="0.00012207" width="165" height="31" rx="4" fill="url(#paint0_linear_20_325)"/>
<g clip-path="url(#clip0_20_325)">
<path d="M20.8293 17.015C21.0442 16.7313 21.2238 16.4194 21.3616 16.0861H22.0996C23.0581 16.0861 23.8379 15.3063 23.8379 14.3478C23.8379 13.5861 23.3453 12.9378 22.6621 12.7034C22.4134 10.0686 20.189 8.00012 17.4903 8.00012C14.7915 8.00012 12.567 10.0686 12.3183 12.7034C11.6352 12.9378 11.1426 13.5861 11.1426 14.3478C11.1426 15.3063 11.9224 16.0861 12.8809 16.0861H13.6189C13.7566 16.4194 13.9362 16.7313 14.1511 17.015C12.3221 18.1469 11.1426 20.1627 11.1426 22.4142C11.1426 22.7378 11.4049 23.0001 11.7285 23.0001H23.2519C23.5756 23.0001 23.8379 22.7378 23.8379 22.4142C23.838 20.1642 22.6593 18.1475 20.8293 17.015ZM22.0996 14.9142H21.656C21.6931 14.546 21.6826 14.1654 21.6167 13.7813H22.0996C22.4119 13.7813 22.666 14.0355 22.666 14.3478C22.6661 14.6601 22.4119 14.9142 22.0996 14.9142ZM17.4903 9.172C19.5098 9.172 21.1863 10.6677 21.4709 12.6095H21.2295C19.6793 9.54233 15.303 9.53889 13.7509 12.6095H13.5097C13.7942 10.6677 15.4707 9.172 17.4903 9.172ZM12.8809 14.9142C12.5686 14.9142 12.3145 14.6601 12.3145 14.3478C12.3145 14.0355 12.5686 13.7813 12.8809 13.7813H13.3638C13.3014 14.1454 13.2854 14.5258 13.3244 14.9142H12.8809ZM17.4903 14.9142H14.5049C14.2495 13.1011 15.6596 11.4767 17.4903 11.4767C19.523 11.4767 20.9476 13.4501 20.386 15.3324C19.6589 17.8332 16.3146 18.2963 14.9322 16.0861H17.4903C17.8139 16.0861 18.0762 15.8238 18.0762 15.5001C18.0762 15.1765 17.8139 14.9142 17.4903 14.9142ZM12.3473 21.8282C12.5391 20.1298 13.5555 18.6632 15.0161 17.8673C16.4894 18.9502 18.4921 18.9495 19.9645 17.8673C21.4241 18.6626 22.4412 20.1287 22.6331 21.8282H12.3473Z" fill="white"/>
</g>
<path d="M36.5733 19.1121C35.6773 19.1121 34.96 18.8455 34.4213 18.3121C33.8827 17.7788 33.6133 17.0561 33.6133 16.1441C33.6133 15.2375 33.88 14.5255 34.4133 14.0081C34.952 13.4855 35.672 13.2241 36.5733 13.2241C37.6347 13.2241 38.4613 13.5868 39.0533 14.3121L38.1733 15.0561C37.8107 14.5495 37.288 14.2961 36.6053 14.2961C36.056 14.2961 35.616 14.4615 35.2853 14.7921C34.9547 15.1228 34.7893 15.5735 34.7893 16.1441C34.7893 16.7255 34.9547 17.1868 35.2853 17.5281C35.616 17.8695 36.056 18.0401 36.6053 18.0401C37.2933 18.0401 37.816 17.7895 38.1733 17.2881L39.0533 18.0321C38.4613 18.7521 37.6347 19.1121 36.5733 19.1121ZM43.4221 15.9601C43.7901 16.0401 44.0834 16.2001 44.3021 16.4401C44.5208 16.6748 44.6301 16.9735 44.6301 17.3361C44.6301 18.4455 43.9208 19.0001 42.5021 19.0001H39.7901V13.3281H42.3341C42.9421 13.3281 43.4034 13.4481 43.7181 13.6881C44.0381 13.9281 44.1981 14.2721 44.1981 14.7201C44.1981 15.3548 43.9394 15.7681 43.4221 15.9601ZM40.9181 14.3041V15.6881H42.2221C42.8088 15.6881 43.1021 15.4481 43.1021 14.9681C43.1021 14.7495 43.0301 14.5841 42.8861 14.4721C42.7421 14.3601 42.5394 14.3041 42.2781 14.3041H40.9181ZM42.5101 18.0161C43.1448 18.0161 43.4621 17.7761 43.4621 17.2961C43.4621 16.8268 43.1074 16.5921 42.3981 16.5921H40.9181V18.0161H42.5101ZM47.2802 13.3281H49.7842V19.0001H48.6562V17.3841H47.5922C47.4856 17.3841 47.4082 17.3815 47.3602 17.3761L46.3122 19.0001H44.9922L46.2402 17.1441C45.5362 16.8348 45.1842 16.2375 45.1842 15.3521C45.1842 14.6908 45.3576 14.1895 45.7042 13.8481C46.0562 13.5015 46.5816 13.3281 47.2802 13.3281ZM47.6242 16.4161H48.6562V14.3361H47.5202C47.1202 14.3361 46.8296 14.4241 46.6482 14.6001C46.4669 14.7708 46.3762 15.0295 46.3762 15.3761C46.3762 16.0695 46.7922 16.4161 47.6242 16.4161ZM54.2764 16.0401C54.6391 16.1148 54.9377 16.2721 55.1724 16.5121C55.4071 16.7468 55.5244 17.0428 55.5244 17.4001C55.5244 17.9601 55.3111 18.3868 54.8844 18.6801C54.4631 18.9681 53.8551 19.1121 53.0604 19.1121C52.4257 19.1121 51.9057 19.0268 51.5004 18.8561C51.1004 18.6855 50.7697 18.4321 50.5084 18.0961L51.3164 17.3441C51.6151 17.8668 52.2097 18.1281 53.1004 18.1281C53.9377 18.1281 54.3564 17.8588 54.3564 17.3201C54.3564 17.1121 54.2524 16.9441 54.0444 16.8161C53.8417 16.6828 53.5271 16.6161 53.1004 16.6161H52.0764V15.7441H52.9724C53.3084 15.7441 53.5777 15.6721 53.7804 15.5281C53.9831 15.3841 54.0844 15.1948 54.0844 14.9601C54.0844 14.7095 53.9777 14.5228 53.7644 14.4001C53.5511 14.2721 53.2604 14.2081 52.8924 14.2081C52.2524 14.2081 51.7804 14.4641 51.4764 14.9761L50.6604 14.2401C50.9217 13.9095 51.2311 13.6588 51.5884 13.4881C51.9511 13.3121 52.4044 13.2241 52.9484 13.2241C53.6631 13.2241 54.2151 13.3548 54.6044 13.6161C54.9937 13.8775 55.1884 14.2481 55.1884 14.7281C55.1884 15.0588 55.1031 15.3361 54.9324 15.5601C54.7671 15.7841 54.5484 15.9441 54.2764 16.0401ZM60.3805 19.0001L59.8845 17.9201H57.4045L56.9165 19.0001H55.6845L58.2765 13.3041H59.0125L61.6125 19.0001H60.3805ZM58.6445 14.8001L58.2125 15.9601L57.7885 16.9681H59.5085L59.0845 15.9601L58.6445 14.8001ZM62.832 19.0001V14.3921H61.024V13.3281H65.792V14.3921H63.984V19.0001H62.832ZM66.5245 19.0001V13.3281H67.6525V14.9921H68.8685C69.6151 14.9921 70.1831 15.1601 70.5725 15.4961C70.9618 15.8268 71.1565 16.3148 71.1565 16.9601C71.1565 18.3201 70.3511 19.0001 68.7405 19.0001H66.5245ZM67.6525 18.0001H68.7005C69.5591 18.0001 69.9885 17.6641 69.9885 16.9921C69.9885 16.3201 69.5885 15.9841 68.7885 15.9841H67.6525V18.0001ZM74.589 19.1121C73.693 19.1121 72.9756 18.8455 72.437 18.3121C71.8983 17.7788 71.629 17.0561 71.629 16.1441C71.629 15.2375 71.8956 14.5255 72.429 14.0081C72.9676 13.4855 73.6876 13.2241 74.589 13.2241C75.6503 13.2241 76.477 13.5868 77.069 14.3121L76.189 15.0561C75.8263 14.5495 75.3036 14.2961 74.621 14.2961C74.0716 14.2961 73.6316 14.4615 73.301 14.7921C72.9703 15.1228 72.805 15.5735 72.805 16.1441C72.805 16.7255 72.9703 17.1868 73.301 17.5281C73.6316 17.8695 74.0716 18.0401 74.621 18.0401C75.309 18.0401 75.8316 17.7895 76.189 17.2881L77.069 18.0321C76.477 18.7521 75.6503 19.1121 74.589 19.1121ZM79.7177 13.3281H82.2217V19.0001H81.0937V17.3841H80.0297C79.9231 17.3841 79.8457 17.3815 79.7977 17.3761L78.7497 19.0001H77.4297L78.6777 17.1441C77.9737 16.8348 77.6217 16.2375 77.6217 15.3521C77.6217 14.6908 77.7951 14.1895 78.1417 13.8481C78.4937 13.5015 79.0191 13.3281 79.7177 13.3281ZM80.0617 16.4161H81.0937V14.3361H79.9577C79.5577 14.3361 79.2671 14.4241 79.0857 14.6001C78.9044 14.7708 78.8137 15.0295 78.8137 15.3761C78.8137 16.0695 79.2297 16.4161 80.0617 16.4161ZM87.7218 19.1121C86.8258 19.1121 86.1084 18.8455 85.5698 18.3121C85.0311 17.7788 84.7618 17.0561 84.7618 16.1441C84.7618 15.2375 85.0284 14.5255 85.5618 14.0081C86.1004 13.4855 86.8204 13.2241 87.7218 13.2241C88.7831 13.2241 89.6098 13.5868 90.2018 14.3121L89.3218 15.0561C88.9591 14.5495 88.4364 14.2961 87.7538 14.2961C87.2044 14.2961 86.7644 14.4615 86.4338 14.7921C86.1031 15.1228 85.9378 15.5735 85.9378 16.1441C85.9378 16.7255 86.1031 17.1868 86.4338 17.5281C86.7644 17.8695 87.2044 18.0401 87.7538 18.0401C88.4418 18.0401 88.9644 17.7895 89.3218 17.2881L90.2018 18.0321C89.6098 18.7521 88.7831 19.1121 87.7218 19.1121ZM97.9384 13.3041H98.5384V19.0001H97.4264V15.8001L95.7864 18.0241H95.3624L93.7144 15.8161V19.0001H92.6104V13.3041H93.2024L95.5784 16.5281L97.9384 13.3041ZM99.6182 19.0001V13.3281H103.738V14.3521H100.714V15.7201H103.258V16.6881H100.714V17.9841H103.866V19.0001H99.6182ZM104.689 19.0001V13.3281H105.817V15.8641H108.417V13.3281H109.537V19.0001H108.417V16.9121H105.817V19.0001H104.689ZM110.626 19.0001V13.3281H114.746V14.3521H111.722V15.7201H114.266V16.6881H111.722V17.9841H114.874V19.0001H110.626ZM121.648 17.9521V20.3281H120.616V19.0001H116.368V20.3281H115.336V17.9521H115.928C116.243 17.6801 116.4 17.0428 116.4 16.0401V13.3281H120.72V17.9521H121.648ZM117.112 17.9521H119.592V14.3761H117.528V16.1201C117.528 16.9895 117.39 17.6001 117.112 17.9521ZM130.607 19.0001H129.127L126.807 16.3601V19.0001H125.695V16.3441L123.327 19.0001H121.895L124.447 16.1281L122.071 13.3281H123.543L125.695 15.9921V13.3281H126.807V16.0001L128.975 13.3281H130.375L128.039 16.0961L130.607 19.0001ZM131.181 19.0001V13.3281H135.301V14.3521H132.277V15.7201H134.821V16.6881H132.277V17.9841H135.429V19.0001H131.181ZM138.507 13.3281C139.259 13.3281 139.83 13.5015 140.219 13.8481C140.608 14.1948 140.803 14.7015 140.803 15.3681C140.803 16.7655 139.998 17.4641 138.387 17.4641H137.379V19.0001H136.251V13.3281H138.507ZM138.347 16.4721C139.206 16.4721 139.635 16.1148 139.635 15.4001C139.635 14.6908 139.235 14.3361 138.435 14.3361H137.379V16.4721H138.347ZM144.333 19.1121C143.442 19.1121 142.712 18.8428 142.141 18.3041C141.576 17.7601 141.293 17.0481 141.293 16.1681C141.293 15.2988 141.57 14.5895 142.125 14.0401C142.685 13.4908 143.421 13.2161 144.333 13.2161C145.229 13.2161 145.962 13.4881 146.533 14.0321C147.104 14.5761 147.389 15.2881 147.389 16.1681C147.389 17.0321 147.106 17.7388 146.541 18.2881C145.981 18.8375 145.245 19.1121 144.333 19.1121ZM144.333 18.0481C144.882 18.0481 145.33 17.8775 145.677 17.5361C146.029 17.1895 146.205 16.7335 146.205 16.1681C146.205 15.6135 146.034 15.1601 145.693 14.8081C145.352 14.4561 144.898 14.2801 144.333 14.2801C143.789 14.2801 143.341 14.4535 142.989 14.8001C142.642 15.1468 142.469 15.6028 142.469 16.1681C142.469 16.7228 142.64 17.1761 142.981 17.5281C143.328 17.8748 143.778 18.0481 144.333 18.0481ZM153.587 13.3041H154.187V19.0001H153.075V15.8001L151.435 18.0241H151.011L149.363 15.8161V19.0001H148.259V13.3041H148.851L151.227 16.5281L153.587 13.3041Z" fill="white"/>
<defs>
<linearGradient id="paint0_linear_20_325" x1="334.788" y1="114.313" x2="-197.007" y2="-16.8075" gradientUnits="userSpaceOnUse">
<stop stop-color="#00A79E"/>
<stop offset="0.48943" stop-color="#88C544"/>
<stop offset="1" stop-color="#00A89D"/>
</linearGradient>
<clipPath id="clip0_20_325">
<rect width="15" height="15" fill="white" transform="translate(10 8.00012)"/>
</clipPath>
</defs>
</svg>
