<svg width="165" height="31" viewBox="0 0 165 31" fill="none" xmlns="http://www.w3.org/2000/svg">
<rect y="0.00012207" width="165" height="31" rx="4" fill="#C4C4C4"/>
<rect y="0.00012207" width="165" height="31" rx="4" fill="url(#paint0_linear_20_324)"/>
<g clip-path="url(#clip0_20_324)">
<path d="M24.5661 10.8476C24.4035 10.8476 24.2475 10.7851 24.1325 10.6738C24.0175 10.5626 23.9529 10.4117 23.9529 10.2544V8.59334C23.9529 8.43601 24.0175 8.28512 24.1325 8.17387C24.2475 8.06262 24.4035 8.00012 24.5661 8.00012C24.7287 8.00012 24.8847 8.06262 24.9997 8.17387C25.1147 8.28512 25.1793 8.43601 25.1793 8.59334V10.2544C25.1793 10.3323 25.1634 10.4094 25.1326 10.4814C25.1018 10.5533 25.0566 10.6187 24.9997 10.6738C24.9428 10.7289 24.8752 10.7726 24.8008 10.8024C24.7264 10.8322 24.6466 10.8476 24.5661 10.8476Z" fill="white"/>
<path d="M18.434 10.8476C18.2714 10.8476 18.1154 10.7851 18.0004 10.6738C17.8854 10.5626 17.8208 10.4117 17.8208 10.2544V8.59334C17.8208 8.43601 17.8854 8.28512 18.0004 8.17387C18.1154 8.06262 18.2714 8.00012 18.434 8.00012C18.5966 8.00012 18.7526 8.06262 18.8676 8.17387C18.9826 8.28512 19.0472 8.43601 19.0472 8.59334V10.2544C19.0472 10.3323 19.0314 10.4094 19.0005 10.4814C18.9697 10.5533 18.9246 10.6187 18.8676 10.6738C18.8107 10.7289 18.7431 10.7726 18.6687 10.8024C18.5943 10.8322 18.5145 10.8476 18.434 10.8476Z" fill="white"/>
<path d="M25.4245 22.0001H17.5755C16.8926 21.9995 16.2379 21.7368 15.7551 21.2697C15.2722 20.8026 15.0006 20.1692 15 19.5086V12.1527C15.0006 11.4921 15.2722 10.8587 15.7551 10.3916C16.2379 9.92446 16.8926 9.66176 17.5755 9.66113H25.4245C26.1074 9.66176 26.7621 9.92446 27.2449 10.3916C27.7278 10.8587 27.9994 11.4921 28 12.1527V19.5086C27.9994 20.1692 27.7278 20.8026 27.2449 21.2697C26.7621 21.7368 26.1074 21.9995 25.4245 22.0001ZM17.5755 10.8476C17.2179 10.8482 16.8751 10.9859 16.6223 11.2305C16.3694 11.4751 16.2271 11.8067 16.2264 12.1527V19.5086C16.2271 19.8545 16.3694 20.1861 16.6223 20.4307C16.8751 20.6753 17.2179 20.813 17.5755 20.8137H25.4245C25.7821 20.813 26.1249 20.6753 26.3777 20.4307C26.6306 20.1861 26.7729 19.8545 26.7736 19.5086V12.1527C26.7729 11.8067 26.6306 11.4751 26.3777 11.2305C26.1249 10.9859 25.7821 10.8482 25.4245 10.8476H17.5755Z" fill="white"/>
<path d="M27.3868 13.9323H15.6132C15.4506 13.9323 15.2946 13.8698 15.1796 13.7585C15.0646 13.6473 15 13.4964 15 13.3391C15 13.1817 15.0646 13.0309 15.1796 12.9196C15.2946 12.8083 15.4506 12.7458 15.6132 12.7458H27.3868C27.5494 12.7458 27.7054 12.8083 27.8204 12.9196C27.9354 13.0309 28 13.1817 28 13.3391C28 13.4964 27.9354 13.6473 27.8204 13.7585C27.7054 13.8698 27.5494 13.9323 27.3868 13.9323Z" fill="white"/>
<path d="M23.4623 17.9876H19.5378C19.3751 17.9876 19.2192 17.9251 19.1042 17.8138C18.9892 17.7026 18.9246 17.5517 18.9246 17.3944C18.9246 17.237 18.9892 17.0861 19.1042 16.9749C19.2192 16.8636 19.3751 16.8011 19.5378 16.8011H23.4623C23.6249 16.8011 23.7809 16.8636 23.8959 16.9749C24.0109 17.0861 24.0755 17.237 24.0755 17.3944C24.0755 17.5517 24.0109 17.7026 23.8959 17.8138C23.7809 17.9251 23.6249 17.9876 23.4623 17.9876Z" fill="white"/>
<path d="M21.5 19.8859C21.3374 19.8859 21.1814 19.8234 21.0664 19.7121C20.9514 19.6009 20.8868 19.45 20.8868 19.2927V15.4961C20.8868 15.3387 20.9514 15.1878 21.0664 15.0766C21.1814 14.9653 21.3374 14.9028 21.5 14.9028C21.6627 14.9028 21.8187 14.9653 21.9337 15.0766C22.0487 15.1878 22.1133 15.3387 22.1133 15.4961V19.2927C22.1133 19.45 22.0487 19.6009 21.9337 19.7121C21.8187 19.8234 21.6627 19.8859 21.5 19.8859Z" fill="white"/>
</g>
<path d="M37.3721 19.0001V13.3281H38.5001V15.8641H41.1001V13.3281H42.2201V19.0001H41.1001V16.9121H38.5001V19.0001H37.3721ZM47.5016 19.0001L47.0056 17.9201H44.5256L44.0376 19.0001H42.8056L45.3976 13.3041H46.1336L48.7336 19.0001H47.5016ZM45.7656 14.8001L45.3336 15.9601L44.9096 16.9681H46.6296L46.2056 15.9601L45.7656 14.8001ZM51.9416 13.3281H53.0696V19.0001H51.9416V17.0881C51.5736 17.2001 51.1656 17.2561 50.7176 17.2561C50.0189 17.2561 49.4509 17.0775 49.0136 16.7201C48.5816 16.3628 48.3656 15.8001 48.3656 15.0321V13.3281H49.4856V14.9761C49.4856 15.8188 49.9362 16.2401 50.8376 16.2401C51.2536 16.2401 51.6216 16.1895 51.9416 16.0881V13.3281ZM58.3454 19.0001L57.8494 17.9201H55.3694L54.8814 19.0001H53.6494L56.2414 13.3041H56.9774L59.5774 19.0001H58.3454ZM56.6094 14.8001L56.1774 15.9601L55.7534 16.9681H57.4734L57.0494 15.9601L56.6094 14.8001ZM60.7969 19.0001V14.3921H58.9889V13.3281H63.7569V14.3921H61.9489V19.0001H60.7969ZM64.4893 19.0001V13.3281H65.6173V14.9921H66.8333C67.58 14.9921 68.148 15.1601 68.5373 15.4961C68.9266 15.8268 69.1213 16.3148 69.1213 16.9601C69.1213 18.3201 68.316 19.0001 66.7053 19.0001H64.4893ZM65.6173 18.0001H66.6653C67.524 18.0001 67.9533 17.6641 67.9533 16.9921C67.9533 16.3201 67.5533 15.9841 66.7533 15.9841H65.6173V18.0001ZM74.0577 15.4641C75.4924 15.4641 76.2097 16.0375 76.2097 17.1841C76.2097 17.8028 76.0204 18.2615 75.6417 18.5601C75.2684 18.8535 74.6977 19.0001 73.9297 19.0001H71.4737V13.3281H75.7137V14.3361H72.6017V15.4641H74.0577ZM73.8897 18.0401C74.6577 18.0401 75.0417 17.7628 75.0417 17.2081C75.0417 16.9308 74.9564 16.7281 74.7857 16.6001C74.6204 16.4721 74.3537 16.4081 73.9857 16.4081H72.6017V18.0401H73.8897ZM79.1594 13.3281C79.9114 13.3281 80.482 13.5015 80.8714 13.8481C81.2607 14.1948 81.4554 14.7015 81.4554 15.3681C81.4554 16.7655 80.65 17.4641 79.0394 17.4641H78.0314V19.0001H76.9034V13.3281H79.1594ZM78.9994 16.4721C79.858 16.4721 80.2874 16.1148 80.2874 15.4001C80.2874 14.6908 79.8874 14.3361 79.0874 14.3361H78.0314V16.4721H78.9994ZM84.9854 19.1121C84.0947 19.1121 83.364 18.8428 82.7934 18.3041C82.228 17.7601 81.9454 17.0481 81.9454 16.1681C81.9454 15.2988 82.2227 14.5895 82.7774 14.0401C83.3374 13.4908 84.0734 13.2161 84.9854 13.2161C85.8814 13.2161 86.6147 13.4881 87.1854 14.0321C87.756 14.5761 88.0414 15.2881 88.0414 16.1681C88.0414 17.0321 87.7587 17.7388 87.1934 18.2881C86.6334 18.8375 85.8974 19.1121 84.9854 19.1121ZM84.9854 18.0481C85.5347 18.0481 85.9827 17.8775 86.3294 17.5361C86.6814 17.1895 86.8574 16.7335 86.8574 16.1681C86.8574 15.6135 86.6867 15.1601 86.3454 14.8081C86.004 14.4561 85.5507 14.2801 84.9854 14.2801C84.4414 14.2801 83.9934 14.4535 83.6414 14.8001C83.2947 15.1468 83.1214 15.6028 83.1214 16.1681C83.1214 16.7228 83.292 17.1761 83.6334 17.5281C83.98 17.8748 84.4307 18.0481 84.9854 18.0481ZM88.9112 19.0001V13.3281H90.0392V15.8641H92.6392V13.3281H93.7592V19.0001H92.6392V16.9121H90.0392V19.0001H88.9112ZM99.3447 13.2961H99.9367V19.0001H98.8087V15.4161L95.4487 19.0321H94.8487V13.3281H95.9767V16.9201L99.3447 13.2961ZM103.277 13.3281C104.029 13.3281 104.599 13.5015 104.989 13.8481C105.378 14.1948 105.573 14.7015 105.573 15.3681C105.573 16.7655 104.767 17.4641 103.157 17.4641H102.149V19.0001H101.021V13.3281H103.277ZM103.117 16.4721C103.975 16.4721 104.405 16.1148 104.405 15.4001C104.405 14.6908 104.005 14.3361 103.205 14.3361H102.149V16.4721H103.117ZM109.103 19.1121C108.212 19.1121 107.481 18.8428 106.911 18.3041C106.345 17.7601 106.063 17.0481 106.063 16.1681C106.063 15.2988 106.34 14.5895 106.895 14.0401C107.455 13.4908 108.191 13.2161 109.103 13.2161C109.999 13.2161 110.732 13.4881 111.303 14.0321C111.873 14.5761 112.159 15.2881 112.159 16.1681C112.159 17.0321 111.876 17.7388 111.311 18.2881C110.751 18.8375 110.015 19.1121 109.103 19.1121ZM109.103 18.0481C109.652 18.0481 110.1 17.8775 110.447 17.5361C110.799 17.1895 110.975 16.7335 110.975 16.1681C110.975 15.6135 110.804 15.1601 110.463 14.8081C110.121 14.4561 109.668 14.2801 109.103 14.2801C108.559 14.2801 108.111 14.4535 107.759 14.8001C107.412 15.1468 107.239 15.6028 107.239 16.1681C107.239 16.7228 107.409 17.1761 107.751 17.5281C108.097 17.8748 108.548 18.0481 109.103 18.0481ZM116.66 15.9601C117.028 16.0401 117.322 16.2001 117.54 16.4401C117.759 16.6748 117.868 16.9735 117.868 17.3361C117.868 18.4455 117.159 19.0001 115.74 19.0001H113.028V13.3281H115.572C116.18 13.3281 116.642 13.4481 116.956 13.6881C117.276 13.9281 117.436 14.2721 117.436 14.7201C117.436 15.3548 117.178 15.7681 116.66 15.9601ZM114.156 14.3041V15.6881H115.46C116.047 15.6881 116.34 15.4481 116.34 14.9681C116.34 14.7495 116.268 14.5841 116.124 14.4721C115.98 14.3601 115.778 14.3041 115.516 14.3041H114.156ZM115.748 18.0161C116.383 18.0161 116.7 17.7761 116.7 17.2961C116.7 16.8268 116.346 16.5921 115.636 16.5921H114.156V18.0161H115.748ZM122.72 19.0001L122.224 17.9201H119.744L119.256 19.0001H118.024L120.616 13.3041H121.352L123.952 19.0001H122.72ZM120.984 14.8001L120.552 15.9601L120.128 16.9681H121.848L121.424 15.9601L120.984 14.8001ZM124.536 19.0001V13.3281H125.664V15.8641H128.264V13.3281H129.384V19.0001H128.264V16.9121H125.664V19.0001H124.536ZM134.97 13.2961H135.562V19.0001H134.434V15.4161L131.074 19.0321H130.474V13.3281H131.602V16.9201L134.97 13.2961ZM136.646 19.0001V13.3281H140.766V14.3521H137.742V15.7201H140.286V16.6881H137.742V17.9841H140.894V19.0001H136.646Z" fill="white"/>
<defs>
<linearGradient id="paint0_linear_20_324" x1="-0.0221763" y1="15.4983" x2="165" y2="15.4983" gradientUnits="userSpaceOnUse">
<stop stop-color="#F87F3D"/>
<stop offset="1" stop-color="#FFB179"/>
</linearGradient>
<clipPath id="clip0_20_324">
<rect width="13" height="14" fill="white" transform="translate(15 8.00012)"/>
</clipPath>
</defs>
</svg>
