<svg width="165" height="31" viewBox="0 0 165 31" fill="none" xmlns="http://www.w3.org/2000/svg">
<rect y="0.00012207" width="165" height="31" rx="4" fill="url(#paint0_linear_20_326)"/>
<g clip-path="url(#clip0_20_326)">
<path d="M35.5377 12.0849H31.6132C31.4506 12.0849 31.2946 12.0224 31.1796 11.9111C31.0646 11.7999 31 11.649 31 11.4917C31 11.3343 31.0646 11.1834 31.1796 11.0722C31.2946 10.9609 31.4506 10.8984 31.6132 10.8984H35.5377C35.7004 10.8984 35.8563 10.9609 35.9713 11.0722C36.0863 11.1834 36.1509 11.3343 36.1509 11.4917C36.1509 11.649 36.0863 11.7999 35.9713 11.9111C35.8563 12.0224 35.7004 12.0849 35.5377 12.0849Z" fill="white"/>
<path d="M33.5755 13.9832C33.4129 13.9832 33.2569 13.9207 33.1419 13.8094C33.0269 13.6982 32.9623 13.5473 32.9623 13.39V9.59334C32.9623 9.43601 33.0269 9.28512 33.1419 9.17387C33.2569 9.06262 33.4129 9.00012 33.5755 9.00012C33.7381 9.00012 33.8941 9.06262 34.0091 9.17387C34.1241 9.28512 34.1887 9.43601 34.1887 9.59334V13.39C34.1887 13.5473 34.1241 13.6982 34.0091 13.8094C33.8941 13.9207 33.7381 13.9832 33.5755 13.9832Z" fill="white"/>
<path d="M30.6626 18.151C30.2238 17.9039 29.3833 17.3675 28.4692 16.4535C27.5551 15.5394 27.0127 14.6927 26.7615 14.2497L28.2359 12.7564L24.513 9.01123L22.679 10.8332C21.9825 11.5296 21.802 12.5894 22.2298 13.4701C22.8826 14.8142 24.0871 16.8426 26.118 18.8735C28.149 20.9046 30.1774 22.109 31.5215 22.7618C31.84 22.9165 32.1818 22.9916 32.5214 22.9916C33.121 22.9916 33.7138 22.7573 34.1584 22.3127L35.984 20.4806L32.1858 16.6761L30.6626 18.151ZM33.3858 21.5414C33.0181 21.9086 32.4607 22.0044 31.9984 21.7799C30.7297 21.1637 28.8136 20.0254 26.8899 18.1017C24.9663 16.178 23.828 14.2619 23.2117 12.9932C22.9871 12.5306 23.0832 11.9728 23.4496 11.6064L24.5082 10.5548L26.6993 12.759L25.4433 14.0312L25.5949 14.3716C25.6195 14.4269 26.2152 15.7433 27.6973 17.2255C29.1804 18.7086 30.4857 19.2918 30.5405 19.3159L30.8763 19.4635L32.1728 18.2082L34.4422 20.4813L33.3858 21.5414Z" fill="white"/>
</g>
<path d="M47.3213 19.0001V13.3281H52.1613V19.0001H51.0413V14.3761H48.4493V19.0001H47.3213ZM56.083 19.1121C55.1924 19.1121 54.4617 18.8428 53.891 18.3041C53.3257 17.7601 53.043 17.0481 53.043 16.1681C53.043 15.2988 53.3204 14.5895 53.875 14.0401C54.435 13.4908 55.171 13.2161 56.083 13.2161C56.979 13.2161 57.7124 13.4881 58.283 14.0321C58.8537 14.5761 59.139 15.2881 59.139 16.1681C59.139 17.0321 58.8564 17.7388 58.291 18.2881C57.731 18.8375 56.995 19.1121 56.083 19.1121ZM56.083 18.0481C56.6324 18.0481 57.0804 17.8775 57.427 17.5361C57.779 17.1895 57.955 16.7335 57.955 16.1681C57.955 15.6135 57.7844 15.1601 57.443 14.8081C57.1017 14.4561 56.6484 14.2801 56.083 14.2801C55.539 14.2801 55.091 14.4535 54.739 14.8001C54.3924 15.1468 54.219 15.6028 54.219 16.1681C54.219 16.7228 54.3897 17.1761 54.731 17.5281C55.0777 17.8748 55.5284 18.0481 56.083 18.0481ZM63.4248 16.0401C63.7875 16.1148 64.0862 16.2721 64.3208 16.5121C64.5555 16.7468 64.6728 17.0428 64.6728 17.4001C64.6728 17.9601 64.4595 18.3868 64.0328 18.6801C63.6115 18.9681 63.0035 19.1121 62.2088 19.1121C61.5742 19.1121 61.0542 19.0268 60.6488 18.8561C60.2488 18.6855 59.9182 18.4321 59.6568 18.0961L60.4648 17.3441C60.7635 17.8668 61.3582 18.1281 62.2488 18.1281C63.0862 18.1281 63.5048 17.8588 63.5048 17.3201C63.5048 17.1121 63.4008 16.9441 63.1928 16.8161C62.9902 16.6828 62.6755 16.6161 62.2488 16.6161H61.2248V15.7441H62.1208C62.4568 15.7441 62.7262 15.6721 62.9288 15.5281C63.1315 15.3841 63.2328 15.1948 63.2328 14.9601C63.2328 14.7095 63.1262 14.5228 62.9128 14.4001C62.6995 14.2721 62.4088 14.2081 62.0408 14.2081C61.4008 14.2081 60.9288 14.4641 60.6248 14.9761L59.8088 14.2401C60.0702 13.9095 60.3795 13.6588 60.7368 13.4881C61.0995 13.3121 61.5528 13.2241 62.0968 13.2241C62.8115 13.2241 63.3635 13.3548 63.7528 13.6161C64.1422 13.8775 64.3368 14.2481 64.3368 14.7281C64.3368 15.0588 64.2515 15.3361 64.0808 15.5601C63.9155 15.7841 63.6968 15.9441 63.4248 16.0401ZM69.0471 15.9601C69.4151 16.0401 69.7084 16.2001 69.9271 16.4401C70.1458 16.6748 70.2551 16.9735 70.2551 17.3361C70.2551 18.4455 69.5458 19.0001 68.1271 19.0001H65.4151V13.3281H67.9591C68.5671 13.3281 69.0284 13.4481 69.3431 13.6881C69.6631 13.9281 69.8231 14.2721 69.8231 14.7201C69.8231 15.3548 69.5644 15.7681 69.0471 15.9601ZM66.5431 14.3041V15.6881H67.8471C68.4338 15.6881 68.7271 15.4481 68.7271 14.9681C68.7271 14.7495 68.6551 14.5841 68.5111 14.4721C68.3671 14.3601 68.1644 14.3041 67.9031 14.3041H66.5431ZM68.1351 18.0161C68.7698 18.0161 69.0871 17.7761 69.0871 17.2961C69.0871 16.8268 68.7324 16.5921 68.0231 16.5921H66.5431V18.0161H68.1351ZM73.8252 19.1121C72.9346 19.1121 72.2039 18.8428 71.6332 18.3041C71.0679 17.7601 70.7852 17.0481 70.7852 16.1681C70.7852 15.2988 71.0626 14.5895 71.6172 14.0401C72.1772 13.4908 72.9132 13.2161 73.8252 13.2161C74.7212 13.2161 75.4546 13.4881 76.0252 14.0321C76.5959 14.5761 76.8812 15.2881 76.8812 16.1681C76.8812 17.0321 76.5986 17.7388 76.0332 18.2881C75.4732 18.8375 74.7372 19.1121 73.8252 19.1121ZM73.8252 18.0481C74.3746 18.0481 74.8226 17.8775 75.1692 17.5361C75.5212 17.1895 75.6972 16.7335 75.6972 16.1681C75.6972 15.6135 75.5266 15.1601 75.1852 14.8081C74.8439 14.4561 74.3906 14.2801 73.8252 14.2801C73.2812 14.2801 72.8332 14.4535 72.4812 14.8001C72.1346 15.1468 71.9612 15.6028 71.9612 16.1681C71.9612 16.7228 72.1319 17.1761 72.4732 17.5281C72.8199 17.8748 73.2706 18.0481 73.8252 18.0481ZM77.751 19.0001V13.3281H78.879V15.8641H81.479V13.3281H82.599V19.0001H81.479V16.9121H78.879V19.0001H77.751ZM88.1845 13.2961H88.7765V19.0001H87.6485V15.4161L84.2885 19.0321H83.6885V13.3281H84.8165V16.9201L88.1845 13.2961ZM91.3164 19.0001V14.3921H89.5084V13.3281H94.2764V14.3921H92.4684V19.0001H91.3164ZM95.0088 19.0001V13.3281H99.1288V14.3521H96.1048V15.7201H98.6488V16.6881H96.1048V17.9841H99.2568V19.0001H95.0088ZM107.079 13.3041H107.679V19.0001H106.567V15.8001L104.927 18.0241H104.503L102.855 15.8161V19.0001H101.751V13.3041H102.343L104.719 16.5281L107.079 13.3041ZM108.759 19.0001V13.3281H109.887V15.8641H112.487V13.3281H113.607V19.0001H112.487V16.9121H109.887V19.0001H108.759ZM114.696 19.0001V13.3281H118.816V14.3521H115.792V15.7201H118.336V16.6881H115.792V17.9841H118.944V19.0001H114.696Z" fill="white"/>
<defs>
<linearGradient id="paint0_linear_20_326" x1="334.788" y1="114.313" x2="-197.007" y2="-16.8075" gradientUnits="userSpaceOnUse">
<stop stop-color="#00A79E"/>
<stop offset="0.48943" stop-color="#88C544"/>
<stop offset="1" stop-color="#00A89D"/>
</linearGradient>
<clipPath id="clip0_20_326">
<rect width="14" height="14" fill="white" transform="translate(22 9.00012)"/>
</clipPath>
</defs>
</svg>
