<svg width="26" height="26" viewBox="0 0 26 26" fill="none" xmlns="http://www.w3.org/2000/svg">
<g clip-path="url(#clip0_1_3442)">
<path d="M12.8068 25.6521C19.8798 25.6521 25.6136 19.9183 25.6136 12.8453C25.6136 5.77226 19.8798 0.0384521 12.8068 0.0384521C5.73381 0.0384521 0 5.77226 0 12.8453C0 19.9183 5.73381 25.6521 12.8068 25.6521Z" fill="#334C8C"/>
<path d="M16.0523 11.6337L15.84 13.4166C15.8308 13.4994 15.7913 13.5759 15.7291 13.6312C15.6668 13.6866 15.5863 13.717 15.503 13.7165H13.6494V19.0077C13.6498 19.0709 13.6253 19.1317 13.5811 19.1768C13.5369 19.222 13.4766 19.2478 13.4134 19.2487H11.5244C11.493 19.2483 11.462 19.2416 11.4331 19.2292C11.4043 19.2168 11.3781 19.1988 11.3562 19.1763C11.3343 19.1537 11.3171 19.1271 11.3054 19.0979C11.2938 19.0687 11.2881 19.0375 11.2885 19.0061L11.2986 13.7165H9.89494C9.80556 13.7165 9.71984 13.681 9.65663 13.6178C9.59343 13.5546 9.55792 13.4689 9.55792 13.3795V11.5966C9.55792 11.5073 9.59343 11.4215 9.65663 11.3583C9.71984 11.2951 9.80556 11.2596 9.89494 11.2596H11.2902V9.5307C11.2902 7.53047 12.4799 6.44189 14.2223 6.44189H15.6496C15.739 6.44189 15.8247 6.4774 15.8879 6.54061C15.9511 6.60381 15.9866 6.68953 15.9866 6.77892V8.28035C15.9866 8.36973 15.9511 8.45545 15.8879 8.51866C15.8247 8.58186 15.739 8.61737 15.6496 8.61737H14.775C13.828 8.63253 13.6494 9.08583 13.6494 9.76324V11.2546H15.7237C15.7711 11.2554 15.8177 11.2661 15.8606 11.2862C15.9035 11.3062 15.9416 11.335 15.9726 11.3708C16.0036 11.4066 16.0268 11.4485 16.0405 11.4938C16.0542 11.5391 16.0582 11.5868 16.0523 11.6337Z" fill="white"/>
</g>
<defs>
<clipPath id="clip0_1_3442">
<rect width="25.6136" height="25.6136" fill="white" transform="translate(0 0.0384521)"/>
</clipPath>
</defs>
</svg>
