<svg width="27" height="26" viewBox="0 0 27 26" fill="none" xmlns="http://www.w3.org/2000/svg">
<g clip-path="url(#clip0_1_3447)">
<path d="M13.4205 25.6521C20.4935 25.6521 26.2273 19.9183 26.2273 12.8453C26.2273 5.77226 20.4935 0.0384521 13.4205 0.0384521C6.34746 0.0384521 0.613647 5.77226 0.613647 12.8453C0.613647 19.9183 6.34746 25.6521 13.4205 25.6521Z" fill="url(#paint0_linear_1_3447)"/>
<path d="M16.0088 6.44189H10.8322C9.82076 6.44323 8.85116 6.84561 8.13598 7.56078C7.4208 8.27596 7.01843 9.24557 7.01709 10.257V15.4336C7.01843 16.445 7.4208 17.4146 8.13598 18.1298C8.85116 18.845 9.82076 19.2474 10.8322 19.2487H16.0088C17.0204 19.2478 17.9902 18.8456 18.7055 18.1303C19.4208 17.415 19.823 16.4452 19.8239 15.4336V10.257C19.8226 9.24557 19.4202 8.27596 18.705 7.56078C17.9898 6.84561 17.0202 6.44323 16.0088 6.44189ZM18.5365 15.4336C18.5365 16.104 18.2702 16.7469 17.7962 17.221C17.3221 17.695 16.6792 17.9613 16.0088 17.9613H10.8322C10.1618 17.9613 9.51888 17.695 9.04485 17.221C8.57082 16.7469 8.30451 16.104 8.30451 15.4336V10.257C8.30451 9.5866 8.57082 8.94368 9.04485 8.46965C9.51888 7.99562 10.1618 7.72932 10.8322 7.72932H16.0088C16.6792 7.72932 17.3221 7.99562 17.7962 8.46965C18.2702 8.94368 18.5365 9.5866 18.5365 10.257V15.4336Z" fill="white"/>
<path d="M13.4205 9.53406C12.7651 9.53372 12.1244 9.72778 11.5793 10.0917C11.0342 10.4556 10.6094 10.973 10.3584 11.5784C10.1074 12.1838 10.0417 12.8501 10.1695 13.4929C10.2972 14.1357 10.6128 14.7261 11.0762 15.1896C11.5397 15.653 12.1301 15.9686 12.7729 16.0963C13.4157 16.2241 14.082 16.1584 14.6874 15.9074C15.2928 15.6564 15.8102 15.2316 16.1741 14.6865C16.538 14.1414 16.7321 13.5007 16.7317 12.8453C16.7309 11.9674 16.3817 11.1257 15.7609 10.5049C15.1401 9.8841 14.2984 9.53495 13.4205 9.53406ZM13.4205 14.8674C13.0206 14.8674 12.6296 14.7488 12.2971 14.5266C11.9645 14.3044 11.7054 13.9886 11.5523 13.6191C11.3993 13.2496 11.3592 12.8431 11.4372 12.4508C11.5153 12.0585 11.7078 11.6982 11.9906 11.4154C12.2734 11.1326 12.6338 10.94 13.026 10.862C13.4183 10.784 13.8248 10.824 14.1943 10.9771C14.5638 11.1301 14.8797 11.3893 15.1018 11.7219C15.324 12.0544 15.4426 12.4454 15.4426 12.8453C15.4426 13.3816 15.2296 13.8959 14.8504 14.2752C14.4711 14.6544 13.9568 14.8674 13.4205 14.8674Z" fill="white"/>
<path d="M16.7519 10.353C17.2042 10.353 17.5709 9.98635 17.5709 9.53405C17.5709 9.08175 17.2042 8.71509 16.7519 8.71509C16.2996 8.71509 15.933 9.08175 15.933 9.53405C15.933 9.98635 16.2996 10.353 16.7519 10.353Z" fill="white"/>
</g>
<defs>
<linearGradient id="paint0_linear_1_3447" x1="13.4205" y1="25.5341" x2="13.4205" y2="1.77411" gradientUnits="userSpaceOnUse">
<stop stop-color="#E09B3D"/>
<stop offset="0.24" stop-color="#C74C4D"/>
<stop offset="0.65" stop-color="#C21975"/>
<stop offset="1" stop-color="#7024C4"/>
</linearGradient>
<clipPath id="clip0_1_3447">
<rect width="25.6136" height="25.6136" fill="white" transform="translate(0.613647 0.0384521)"/>
</clipPath>
</defs>
</svg>
