<svg width="144" height="24" viewBox="0 0 144 24" fill="none" xmlns="http://www.w3.org/2000/svg">
<path d="M3.82129 12.5682L6.16992 6.54425H7.92822L4.71631 14.1107C4.61475 14.3434 4.49837 14.5698 4.36719 14.7899C4.24023 15.0057 4.08577 15.1982 3.90381 15.3675C3.72184 15.5368 3.50179 15.6722 3.24365 15.7737C2.98551 15.8711 2.67236 15.9197 2.3042 15.9197C2.20687 15.9197 2.08838 15.9155 1.94873 15.907C1.81331 15.8986 1.71387 15.8901 1.65039 15.8817L1.66309 14.6312C1.71387 14.6396 1.7985 14.646 1.91699 14.6502C2.03971 14.6544 2.12858 14.6566 2.18359 14.6566C2.42904 14.6566 2.6237 14.6164 2.76758 14.5359C2.91146 14.4513 3.02572 14.3392 3.11035 14.1995C3.19922 14.0556 3.27751 13.8991 3.34521 13.7298L3.82129 12.5682ZM2.05664 6.54425L4.37988 11.6605L4.83691 13.3235L3.59912 13.368L0.317383 6.54425H2.05664ZM11.5654 12.5047H10.2451V11.7303H11.3115C11.5824 11.7303 11.7982 11.6943 11.959 11.6224C12.124 11.5504 12.2404 11.451 12.3081 11.324C12.38 11.1929 12.416 11.0405 12.416 10.867C12.416 10.7147 12.38 10.5708 12.3081 10.4354C12.2404 10.2957 12.124 10.1815 11.959 10.0926C11.7939 10.0037 11.5697 9.95929 11.2861 9.95929C11.0534 9.95929 10.8439 9.99738 10.6577 10.0735C10.4757 10.1497 10.3319 10.2555 10.2261 10.3909C10.1203 10.5263 10.0674 10.6829 10.0674 10.8607H8.5376C8.5376 10.4332 8.6582 10.0651 8.89941 9.75616C9.14486 9.44725 9.47282 9.21027 9.8833 9.04523C10.2938 8.88019 10.7445 8.79767 11.2354 8.79767C11.6543 8.79767 12.0309 8.8421 12.3652 8.93097C12.6995 9.0156 12.9831 9.14256 13.2158 9.31183C13.4528 9.47687 13.6326 9.68422 13.7554 9.9339C13.8823 10.1793 13.9458 10.465 13.9458 10.7908C13.9458 11.0236 13.8908 11.2436 13.7808 11.451C13.6707 11.6583 13.512 11.8424 13.3047 12.0032C13.0973 12.1598 12.8455 12.2825 12.5493 12.3714C12.2573 12.4603 11.9294 12.5047 11.5654 12.5047ZM10.2451 12.0604H11.5654C11.9717 12.0604 12.3314 12.1006 12.6445 12.181C12.9577 12.2571 13.2201 12.3714 13.4316 12.5237C13.6432 12.6761 13.8019 12.8644 13.9077 13.0887C14.0177 13.3087 14.0728 13.5626 14.0728 13.8504C14.0728 14.172 14.0029 14.4619 13.8633 14.72C13.7279 14.9739 13.5332 15.1898 13.2793 15.3675C13.0296 15.5452 12.7313 15.6806 12.3843 15.7737C12.0373 15.8668 11.6543 15.9134 11.2354 15.9134C10.7783 15.9134 10.334 15.8372 9.90234 15.6849C9.47493 15.5325 9.12158 15.2977 8.84229 14.9803C8.56722 14.6587 8.42969 14.2503 8.42969 13.7552H9.95947C9.95947 13.9287 10.0124 14.0916 10.1182 14.244C10.224 14.3963 10.3763 14.5211 10.5752 14.6185C10.7741 14.7116 11.0132 14.7581 11.2925 14.7581C11.5802 14.7581 11.8151 14.7137 11.9971 14.6248C12.179 14.5317 12.3145 14.4111 12.4033 14.263C12.4922 14.1107 12.5366 13.9498 12.5366 13.7806C12.5366 13.5521 12.4922 13.368 12.4033 13.2283C12.3145 13.0887 12.179 12.9871 11.9971 12.9236C11.8151 12.8559 11.5866 12.8221 11.3115 12.8221H10.2451V12.0604ZM20.0649 11.7874V12.9935H16.5103V11.7874H20.0649ZM16.9546 8.91827V15.7864H15.4248V8.91827H16.9546ZM21.1694 8.91827V15.7864H19.6396V8.91827H21.1694ZM26.6729 14.409V11.1336C26.6729 10.8882 26.6284 10.6766 26.5396 10.4988C26.4507 10.3211 26.3153 10.1836 26.1333 10.0862C25.9556 9.98891 25.7313 9.94025 25.4604 9.94025C25.2108 9.94025 24.995 9.98256 24.813 10.0672C24.631 10.1518 24.4893 10.2661 24.3877 10.41C24.2861 10.5539 24.2354 10.7168 24.2354 10.8987H22.7119C22.7119 10.6279 22.7775 10.3655 22.9087 10.1116C23.0399 9.85773 23.2303 9.63133 23.48 9.43243C23.7297 9.23354 24.028 9.07697 24.375 8.96271C24.722 8.84845 25.1113 8.79132 25.543 8.79132C26.0592 8.79132 26.5163 8.87807 26.9141 9.05157C27.3161 9.22508 27.6313 9.48745 27.8599 9.83868C28.0926 10.1857 28.209 10.6216 28.209 11.1463V14.1995C28.209 14.5127 28.2301 14.7941 28.2725 15.0438C28.319 15.2892 28.3846 15.5029 28.4692 15.6849V15.7864H26.9014C26.8294 15.6214 26.7723 15.4119 26.73 15.158C26.6919 14.8999 26.6729 14.6502 26.6729 14.409ZM26.895 11.6097L26.9077 12.5555H25.8096C25.526 12.5555 25.2764 12.583 25.0605 12.638C24.8447 12.6888 24.6649 12.765 24.521 12.8665C24.3771 12.9681 24.2692 13.0908 24.1973 13.2347C24.1253 13.3786 24.0894 13.5415 24.0894 13.7234C24.0894 13.9054 24.1317 14.0726 24.2163 14.2249C24.3009 14.373 24.4237 14.4894 24.5845 14.574C24.7495 14.6587 24.9484 14.701 25.1812 14.701C25.4943 14.701 25.7673 14.6375 26 14.5106C26.237 14.3794 26.4232 14.2207 26.5586 14.0345C26.694 13.8441 26.766 13.6642 26.7744 13.4949L27.2695 14.1741C27.2188 14.3476 27.132 14.5338 27.0093 14.7327C26.8866 14.9316 26.7257 15.122 26.5269 15.304C26.3322 15.4818 26.0973 15.6277 25.8223 15.742C25.5514 15.8563 25.2383 15.9134 24.8828 15.9134C24.4342 15.9134 24.0343 15.8245 23.6831 15.6468C23.3319 15.4648 23.0568 15.2215 22.8579 14.9168C22.659 14.6079 22.5596 14.2588 22.5596 13.8694C22.5596 13.5055 22.6273 13.1839 22.7627 12.9046C22.9023 12.6211 23.1055 12.3841 23.3721 12.1937C23.6429 12.0032 23.973 11.8594 24.3623 11.762C24.7516 11.6605 25.196 11.6097 25.6953 11.6097H26.895ZM32.8936 8.91827V15.7864H31.3574V8.91827H32.8936ZM35.147 8.91827V10.1243H29.1421V8.91827H35.147ZM37.3052 11.1019H39.3301C39.9225 11.1019 40.4261 11.2013 40.8408 11.4002C41.2555 11.5991 41.5708 11.8763 41.7866 12.2318C42.0067 12.583 42.1167 12.985 42.1167 13.4378C42.1167 13.7721 42.0553 14.0832 41.9326 14.3709C41.8099 14.6544 41.6279 14.902 41.3867 15.1136C41.1497 15.3252 40.8577 15.4902 40.5107 15.6087C40.168 15.7272 39.7744 15.7864 39.3301 15.7864H36.2896V8.91827H37.8257V14.574H39.3301C39.6348 14.574 39.8781 14.5211 40.0601 14.4153C40.242 14.3095 40.3732 14.172 40.4536 14.0027C40.5382 13.8335 40.5806 13.6536 40.5806 13.4632C40.5806 13.2685 40.5382 13.0845 40.4536 12.9109C40.3732 12.7374 40.242 12.5957 40.0601 12.4857C39.8781 12.3756 39.6348 12.3206 39.3301 12.3206H37.3052V11.1019ZM51.1875 8.91827V10.137H47.7979V8.91827H51.1875ZM48.1597 8.91827V15.7864H46.6299V8.91827H48.1597ZM52.3872 8.91827V15.7864H50.8511V8.91827H52.3872ZM53.7139 12.4285V12.2825C53.7139 11.7874 53.7858 11.3283 53.9297 10.9051C54.0736 10.4777 54.2809 10.1074 54.5518 9.79425C54.8268 9.47687 55.1611 9.23142 55.5547 9.05792C55.9525 8.88019 56.401 8.79132 56.9004 8.79132C57.404 8.79132 57.8525 8.88019 58.2461 9.05792C58.6439 9.23142 58.9803 9.47687 59.2554 9.79425C59.5304 10.1074 59.7399 10.4777 59.8838 10.9051C60.0277 11.3283 60.0996 11.7874 60.0996 12.2825V12.4285C60.0996 12.9236 60.0277 13.3828 59.8838 13.806C59.7399 14.2291 59.5304 14.5994 59.2554 14.9168C58.9803 15.23 58.646 15.4754 58.2524 15.6531C57.8589 15.8266 57.4124 15.9134 56.9131 15.9134C56.4095 15.9134 55.9588 15.8266 55.561 15.6531C55.1675 15.4754 54.8332 15.23 54.5581 14.9168C54.283 14.5994 54.0736 14.2291 53.9297 13.806C53.7858 13.3828 53.7139 12.9236 53.7139 12.4285ZM55.2437 12.2825V12.4285C55.2437 12.7374 55.2754 13.0294 55.3389 13.3045C55.4023 13.5796 55.5018 13.8208 55.6372 14.0281C55.7726 14.2355 55.9461 14.3984 56.1577 14.5169C56.3693 14.6354 56.6211 14.6946 56.9131 14.6946C57.1966 14.6946 57.4421 14.6354 57.6494 14.5169C57.861 14.3984 58.0345 14.2355 58.1699 14.0281C58.3053 13.8208 58.4048 13.5796 58.4683 13.3045C58.536 13.0294 58.5698 12.7374 58.5698 12.4285V12.2825C58.5698 11.9778 58.536 11.6901 58.4683 11.4193C58.4048 11.1442 58.3032 10.9009 58.1636 10.6893C58.0282 10.4777 57.8547 10.3126 57.6431 10.1942C57.4357 10.0714 57.1882 10.0101 56.9004 10.0101C56.6126 10.0101 56.363 10.0714 56.1514 10.1942C55.944 10.3126 55.7726 10.4777 55.6372 10.6893C55.5018 10.9009 55.4023 11.1442 55.3389 11.4193C55.2754 11.6901 55.2437 11.9778 55.2437 12.2825ZM62.1689 8.91827H63.6987L63.6226 11.3367C63.6014 12.0392 63.521 12.6422 63.3813 13.1458C63.2417 13.6494 63.0597 14.0747 62.8354 14.4217C62.6112 14.7645 62.3573 15.0459 62.0737 15.2659C61.7944 15.486 61.5003 15.6595 61.1914 15.7864H60.7407V14.5804L60.9565 14.5677C61.1385 14.373 61.2951 14.1784 61.4263 13.9837C61.5617 13.7848 61.6759 13.5669 61.769 13.3299C61.8621 13.0887 61.9341 12.8073 61.9849 12.4857C62.0399 12.164 62.0758 11.7811 62.0928 11.3367L62.1689 8.91827ZM62.5752 8.91827H66.9297V15.7864H65.4062V10.2132H62.5752V8.91827ZM60.3916 14.5677H67.8691V17.8304H66.3394V15.7864H61.9404V17.8304H60.3853L60.3916 14.5677ZM70.459 10.2386V18.4271H68.9292V8.91827H70.3384L70.459 10.2386ZM74.9341 12.2889V12.4222C74.9341 12.9215 74.8748 13.3849 74.7563 13.8123C74.6421 14.2355 74.4707 14.6058 74.2422 14.9232C74.0179 15.2363 73.7407 15.4796 73.4106 15.6531C73.0806 15.8266 72.6997 15.9134 72.2681 15.9134C71.8407 15.9134 71.4661 15.8351 71.1445 15.6785C70.8271 15.5177 70.5584 15.2913 70.3384 14.9993C70.1183 14.7073 69.9406 14.3646 69.8052 13.971C69.674 13.5732 69.5809 13.1373 69.5259 12.6634V12.1492C69.5809 11.6457 69.674 11.1886 69.8052 10.7781C69.9406 10.3677 70.1183 10.0143 70.3384 9.71808C70.5584 9.42185 70.8271 9.19334 71.1445 9.03253C71.4619 8.87172 71.8322 8.79132 72.2554 8.79132C72.687 8.79132 73.07 8.87596 73.4043 9.04523C73.7386 9.21027 74.02 9.44725 74.2485 9.75616C74.4771 10.0609 74.6484 10.429 74.7627 10.8607C74.877 11.2881 74.9341 11.7641 74.9341 12.2889ZM73.4043 12.4222V12.2889C73.4043 11.9715 73.3747 11.6774 73.3154 11.4066C73.2562 11.1315 73.1631 10.8903 73.0361 10.6829C72.9092 10.4756 72.7463 10.3148 72.5474 10.2005C72.3527 10.082 72.1178 10.0228 71.8428 10.0228C71.5719 10.0228 71.3392 10.0693 71.1445 10.1624C70.9499 10.2513 70.7869 10.3761 70.6558 10.5369C70.5246 10.6977 70.423 10.886 70.3511 11.1019C70.2791 11.3135 70.2284 11.5441 70.1987 11.7938V13.0252C70.2495 13.3299 70.3363 13.6092 70.459 13.8631C70.5817 14.117 70.7552 14.3201 70.9795 14.4725C71.208 14.6206 71.5 14.6946 71.8555 14.6946C72.1305 14.6946 72.3654 14.6354 72.5601 14.5169C72.7547 14.3984 72.9134 14.2355 73.0361 14.0281C73.1631 13.8165 73.2562 13.5732 73.3154 13.2982C73.3747 13.0231 73.4043 12.7311 73.4043 12.4222ZM75.9434 12.4285V12.2825C75.9434 11.7874 76.0153 11.3283 76.1592 10.9051C76.3031 10.4777 76.5104 10.1074 76.7812 9.79425C77.0563 9.47687 77.3906 9.23142 77.7842 9.05792C78.182 8.88019 78.6305 8.79132 79.1299 8.79132C79.6335 8.79132 80.082 8.88019 80.4756 9.05792C80.8734 9.23142 81.2098 9.47687 81.4849 9.79425C81.7599 10.1074 81.9694 10.4777 82.1133 10.9051C82.2572 11.3283 82.3291 11.7874 82.3291 12.2825V12.4285C82.3291 12.9236 82.2572 13.3828 82.1133 13.806C81.9694 14.2291 81.7599 14.5994 81.4849 14.9168C81.2098 15.23 80.8755 15.4754 80.4819 15.6531C80.0884 15.8266 79.6419 15.9134 79.1426 15.9134C78.639 15.9134 78.1883 15.8266 77.7905 15.6531C77.397 15.4754 77.0627 15.23 76.7876 14.9168C76.5125 14.5994 76.3031 14.2291 76.1592 13.806C76.0153 13.3828 75.9434 12.9236 75.9434 12.4285ZM77.4731 12.2825V12.4285C77.4731 12.7374 77.5049 13.0294 77.5684 13.3045C77.6318 13.5796 77.7313 13.8208 77.8667 14.0281C78.0021 14.2355 78.1756 14.3984 78.3872 14.5169C78.5988 14.6354 78.8506 14.6946 79.1426 14.6946C79.4261 14.6946 79.6715 14.6354 79.8789 14.5169C80.0905 14.3984 80.264 14.2355 80.3994 14.0281C80.5348 13.8208 80.6343 13.5796 80.6978 13.3045C80.7655 13.0294 80.7993 12.7374 80.7993 12.4285V12.2825C80.7993 11.9778 80.7655 11.6901 80.6978 11.4193C80.6343 11.1442 80.5327 10.9009 80.3931 10.6893C80.2576 10.4777 80.0841 10.3126 79.8726 10.1942C79.6652 10.0714 79.4176 10.0101 79.1299 10.0101C78.8421 10.0101 78.5924 10.0714 78.3809 10.1942C78.1735 10.3126 78.0021 10.4777 77.8667 10.6893C77.7313 10.9009 77.6318 11.1442 77.5684 11.4193C77.5049 11.6901 77.4731 11.9778 77.4731 12.2825ZM87.9214 5.90948H89.1592C89.1592 6.28611 89.1063 6.59715 89.0005 6.84259C88.8989 7.0838 88.7466 7.28269 88.5435 7.43927C88.3446 7.59161 88.097 7.71434 87.8008 7.80743C87.5088 7.90053 87.1702 7.98517 86.7852 8.06134C86.4297 8.13751 86.1081 8.25812 85.8203 8.42316C85.5368 8.58396 85.2977 8.81036 85.103 9.10236C84.9126 9.39012 84.7751 9.7604 84.6904 10.2132C84.6058 10.666 84.5804 11.2182 84.6143 11.8699V12.3016L83.4019 12.4095V11.9778C83.4019 11.1696 83.4759 10.465 83.624 9.86407C83.7721 9.26316 83.9816 8.75747 84.2524 8.34698C84.5275 7.93227 84.8534 7.60219 85.23 7.35675C85.6108 7.11131 86.034 6.94204 86.4995 6.84894C86.8169 6.78123 87.0814 6.71352 87.293 6.64581C87.5046 6.57387 87.6611 6.48289 87.7627 6.37286C87.8685 6.25861 87.9214 6.10415 87.9214 5.90948ZM86.8486 9.30548C87.3057 9.30548 87.7119 9.38588 88.0674 9.54669C88.4229 9.70327 88.7233 9.92332 88.9688 10.2068C89.2142 10.4904 89.4004 10.8247 89.5273 11.2098C89.6585 11.5949 89.7241 12.0138 89.7241 12.4666V12.6063C89.7241 13.0802 89.6543 13.5182 89.5146 13.9202C89.375 14.3222 89.1698 14.6735 88.8989 14.9739C88.6281 15.2702 88.2959 15.5029 87.9023 15.6722C87.513 15.8372 87.0666 15.9197 86.563 15.9197C86.0636 15.9197 85.6172 15.833 85.2236 15.6595C84.8301 15.486 84.4979 15.2448 84.2271 14.9359C83.9562 14.6227 83.751 14.2567 83.6113 13.8377C83.4717 13.4188 83.4019 12.9617 83.4019 12.4666V12.327C83.3976 12.2381 83.4209 12.1513 83.4717 12.0667C83.5267 11.9821 83.5923 11.8911 83.6685 11.7938C83.7446 11.6964 83.8123 11.5843 83.8716 11.4573C84.0832 11.0299 84.3328 10.6554 84.6206 10.3338C84.9084 10.0122 85.2363 9.7604 85.6045 9.57843C85.9769 9.39646 86.3916 9.30548 86.8486 9.30548ZM86.5503 10.5179C86.1694 10.5179 85.8584 10.6089 85.6172 10.7908C85.3802 10.9686 85.2046 11.2055 85.0903 11.5018C84.9803 11.798 84.9253 12.1196 84.9253 12.4666V12.6063C84.9253 12.8898 84.957 13.1585 85.0205 13.4124C85.084 13.6663 85.1792 13.8906 85.3062 14.0853C85.4373 14.2757 85.6066 14.4259 85.814 14.5359C86.0256 14.646 86.2752 14.701 86.563 14.701C86.855 14.701 87.1025 14.646 87.3057 14.5359C87.513 14.4259 87.6802 14.2757 87.8071 14.0853C87.9383 13.8906 88.0335 13.6663 88.0928 13.4124C88.1562 13.1585 88.188 12.8898 88.188 12.6063V12.4666C88.188 12.2042 88.1562 11.9567 88.0928 11.7239C88.0335 11.4912 87.9383 11.2859 87.8071 11.1082C87.6759 10.9262 87.5067 10.7824 87.2993 10.6766C87.092 10.5708 86.8423 10.5179 86.5503 10.5179ZM95.5005 11.7874V12.9935H91.9458V11.7874H95.5005ZM92.3901 8.91827V15.7864H90.8604V8.91827H92.3901ZM96.605 8.91827V15.7864H95.0752V8.91827H96.605ZM101.264 15.9134C100.756 15.9134 100.297 15.8309 99.8867 15.6658C99.4805 15.4966 99.1335 15.2617 98.8457 14.9612C98.5622 14.6608 98.3442 14.3074 98.1919 13.9012C98.0396 13.4949 97.9634 13.0569 97.9634 12.5872V12.3333C97.9634 11.7959 98.0417 11.3092 98.1982 10.8734C98.3548 10.4375 98.5728 10.0651 98.8521 9.75616C99.1313 9.44301 99.4614 9.20392 99.8423 9.03888C100.223 8.87384 100.636 8.79132 101.08 8.79132C101.571 8.79132 102 8.87384 102.369 9.03888C102.737 9.20392 103.042 9.43667 103.283 9.73712C103.528 10.0333 103.71 10.3867 103.829 10.7972C103.951 11.2077 104.013 11.6605 104.013 12.1556V12.8094H98.7061V11.7112H102.502V11.5906C102.493 11.3156 102.438 11.0574 102.337 10.8162C102.24 10.575 102.089 10.3804 101.886 10.2322C101.683 10.0841 101.412 10.0101 101.074 10.0101C100.82 10.0101 100.593 10.0651 100.395 10.1751C100.2 10.2809 100.037 10.4354 99.9058 10.6385C99.7746 10.8416 99.673 11.0871 99.6011 11.3748C99.5334 11.6583 99.4995 11.9778 99.4995 12.3333V12.5872C99.4995 12.8877 99.5397 13.167 99.6201 13.4251C99.7048 13.679 99.8275 13.9012 99.9883 14.0916C100.149 14.282 100.344 14.4323 100.572 14.5423C100.801 14.6481 101.061 14.701 101.353 14.701C101.721 14.701 102.049 14.6269 102.337 14.4788C102.625 14.3307 102.874 14.1212 103.086 13.8504L103.892 14.6312C103.744 14.847 103.551 15.0543 103.314 15.2532C103.077 15.4479 102.788 15.6066 102.445 15.7293C102.106 15.852 101.713 15.9134 101.264 15.9134ZM108.234 15.9134C107.726 15.9134 107.267 15.8309 106.856 15.6658C106.45 15.4966 106.103 15.2617 105.815 14.9612C105.532 14.6608 105.314 14.3074 105.162 13.9012C105.009 13.4949 104.933 13.0569 104.933 12.5872V12.3333C104.933 11.7959 105.011 11.3092 105.168 10.8734C105.325 10.4375 105.542 10.0651 105.822 9.75616C106.101 9.44301 106.431 9.20392 106.812 9.03888C107.193 8.87384 107.605 8.79132 108.05 8.79132C108.541 8.79132 108.97 8.87384 109.338 9.03888C109.707 9.20392 110.011 9.43667 110.252 9.73712C110.498 10.0333 110.68 10.3867 110.798 10.7972C110.921 11.2077 110.982 11.6605 110.982 12.1556V12.8094H105.676V11.7112H109.472V11.5906C109.463 11.3156 109.408 11.0574 109.307 10.8162C109.209 10.575 109.059 10.3804 108.856 10.2322C108.653 10.0841 108.382 10.0101 108.043 10.0101C107.79 10.0101 107.563 10.0651 107.364 10.1751C107.17 10.2809 107.007 10.4354 106.875 10.6385C106.744 10.8416 106.643 11.0871 106.571 11.3748C106.503 11.6583 106.469 11.9778 106.469 12.3333V12.5872C106.469 12.8877 106.509 13.167 106.59 13.4251C106.674 13.679 106.797 13.9012 106.958 14.0916C107.119 14.282 107.313 14.4323 107.542 14.5423C107.771 14.6481 108.031 14.701 108.323 14.701C108.691 14.701 109.019 14.6269 109.307 14.4788C109.594 14.3307 109.844 14.1212 110.056 13.8504L110.862 14.6312C110.714 14.847 110.521 15.0543 110.284 15.2532C110.047 15.4479 109.757 15.6066 109.415 15.7293C109.076 15.852 108.682 15.9134 108.234 15.9134Z" fill="#FA8848"/>
<path d="M136 16L139.293 12.7071C139.683 12.3166 139.683 11.6834 139.293 11.2929L136 8M139 12L125 12" stroke="#FA8848" stroke-width="1.5" stroke-linecap="round"/>
</svg>
