<svg width="132" height="49" viewBox="0 0 132 49" fill="none" xmlns="http://www.w3.org/2000/svg">
<path d="M14.5917 22.1338L26.4191 8.43931C24.2819 5.77084 21.3182 3.92303 18.015 3.19945C14.7117 2.47587 11.2653 2.91955 8.24204 4.45761C5.21875 5.99566 2.79837 8.53661 1.37852 11.663C-0.0413354 14.7894 -0.376205 18.3153 0.428922 21.6615C1.4836 26.0404 7.46288 32.4737 12.7642 37.4729C11.5143 35.0269 11.02 32.2524 11.3462 29.5145C11.6724 26.7765 12.8039 24.2034 14.5917 22.1338Z" fill="url(#paint0_linear_1_3373)"/>
<path d="M42.3313 7.16462L35.0016 0.583408L16.143 22.4155C14.9805 23.7615 14.0893 25.3279 13.5205 27.0252C12.9516 28.7224 12.7161 30.5174 12.8276 32.3074C12.939 34.0975 13.3951 35.8476 14.1698 37.458C14.9445 39.0683 16.0227 40.5072 17.3428 41.6925L24.6697 48.2737L43.5227 26.4416C44.6858 25.0961 45.5775 23.5302 46.1471 21.8332C46.7166 20.1363 46.9528 18.3415 46.8422 16.5515C46.7316 14.7614 46.2763 13.0111 45.5023 11.4005C44.7283 9.78993 43.6508 8.35056 42.3313 7.16462Z" fill="#9AC93D"/>
<path d="M19.7842 32.2546L20.6659 31.1649L22.4655 32.6757L21.9075 29.6256L22.9538 28.3309L23.6848 32.266L28.3276 32.5193L27.2953 33.7996L23.5648 33.5891L25.8834 35.5353L25.0018 36.625L19.7842 32.2546Z" fill="white"/>
<path d="M31.9744 28.0037L26.8712 26.3506L29.4187 31.1677L28.4951 32.3058L25.0437 25.7445L25.9254 24.6491L32.9008 26.8513L31.9744 28.0037Z" fill="white"/>
<path d="M33.5787 23.528L27.9314 22.1651L28.9135 20.9473L32.9034 22.0542L30.875 18.5089L31.7706 17.3992L34.2818 22.0428C34.7115 22.8395 34.9114 23.4806 34.8817 23.9662C34.8631 24.4217 34.7006 24.8588 34.4185 25.2125C33.9665 25.7815 33.2968 26.086 32.4096 26.1258L32.3259 24.8653C32.5349 24.8736 32.7433 24.8374 32.9379 24.759C33.1324 24.6806 33.3088 24.5618 33.4559 24.4101C33.5466 24.305 33.6032 24.1738 33.6177 24.0345C33.6229 23.8647 33.6098 23.6949 33.5787 23.528Z" fill="white"/>
<path d="M37.6412 20.9844L32.4236 16.6026L34.8147 13.6406L35.7829 14.4515L34.2623 16.338L35.2612 17.1916L35.4509 16.9554C35.7595 16.5452 36.1296 16.187 36.5474 15.8941C36.8923 15.6713 37.298 15.5666 37.7053 15.5954C38.1471 15.6229 38.5677 15.7979 38.9023 16.0933C39.2214 16.3343 39.4608 16.6688 39.5887 17.0522C39.684 17.4011 39.6926 17.7688 39.6138 18.122C39.4841 18.5956 39.2481 19.032 38.9246 19.3967L37.6412 20.9844ZM36.1484 17.9228L37.5658 19.1093L37.7835 18.8248C38.1797 18.3325 38.375 17.9712 38.361 17.7407C38.3532 17.6234 38.3205 17.5091 38.2651 17.4059C38.2097 17.3028 38.1329 17.2131 38.0402 17.1432C37.5342 16.7164 36.9641 16.8966 36.3298 17.6838L36.1484 17.9228Z" fill="white"/>
<path d="M63.2375 20.1705L60.0587 12.0324L56.8253 20.1705H54.5032L58.9396 9.09954H61.156L65.5741 20.1705H63.2375Z" fill="#494746"/>
<path d="M68.5271 19.9606H66.4258V11.8629H68.5271V15.0693H69.6442C69.853 14.0721 70.4254 13.1807 71.257 12.5577C72.0981 11.9201 73.151 11.6014 74.2178 11.6616C75.2847 11.7217 76.2921 12.1565 77.0509 12.8842C77.4707 13.2737 77.8025 13.743 78.0257 14.2625C78.2489 14.782 78.3585 15.3406 78.3476 15.903C78.3557 16.4608 78.248 17.0145 78.0308 17.5312C77.8136 18.048 77.4914 18.5173 77.0833 18.9114C76.6749 19.323 76.1822 19.6475 75.6366 19.864C75.091 20.0806 74.5046 20.1845 73.9151 20.169C72.9215 20.1753 71.9564 19.8474 71.1852 19.2415C70.4072 18.6695 69.8608 17.8522 69.6406 16.9313H68.5271V19.9606ZM76.2319 15.91C76.2451 15.601 76.195 15.2925 76.0847 15.0022C75.9744 14.7119 75.8059 14.4455 75.589 14.2182C75.376 14.0029 75.1184 13.8334 74.833 13.7208C74.5477 13.6083 74.241 13.5552 73.9331 13.5651C73.6272 13.5578 73.3232 13.6142 73.0419 13.7305C72.7605 13.8467 72.5083 14.0202 72.3023 14.239C71.8875 14.7108 71.6597 15.3099 71.6597 15.9291C71.6597 16.5483 71.8875 17.1474 72.3023 17.6192C72.5135 17.8309 72.7686 17.997 73.0509 18.1066C73.3332 18.2162 73.6363 18.2667 73.9402 18.2549C74.2443 18.2616 74.5465 18.2074 74.8278 18.0956C75.1091 17.9838 75.3633 17.8168 75.5746 17.6053C75.7967 17.3798 75.9699 17.1137 76.084 16.8226C76.1981 16.5314 76.2509 16.2211 76.2391 15.91H76.2319Z" fill="#494746"/>
<path d="M88.034 8.24792V10.2141C87.4826 10.2805 86.9281 10.3162 86.373 10.3209C85.6381 10.3162 84.9037 10.3615 84.1743 10.4563C83.7048 10.5259 83.2585 10.7142 82.8741 11.0048C82.5295 11.2567 82.2548 11.5996 82.0777 11.9985C81.8942 12.5151 81.7974 13.061 81.7918 13.6121C82.3659 12.1731 83.3518 11.4524 84.7495 11.45C85.2484 11.4459 85.7428 11.5487 86.2023 11.752C86.6618 11.9554 87.0767 12.2551 87.4214 12.6326C87.8025 13.0323 88.1008 13.51 88.2976 14.0358C88.4943 14.5617 88.5854 15.1243 88.565 15.6886C88.582 16.2811 88.4834 16.871 88.275 17.4222C88.0667 17.9734 87.753 18.4743 87.3533 18.8943C86.9646 19.3099 86.4985 19.6375 85.9839 19.8569C85.4693 20.0762 84.9171 20.1826 84.3615 20.1694C83.4618 20.167 82.5871 19.8586 81.8694 19.2907C81.1518 18.7228 80.63 17.9261 80.3827 17.0207C80.1642 16.1197 80.0544 15.1935 80.056 14.2639C80.0234 13.2298 80.1746 12.1984 80.5018 11.2221C80.7343 10.5363 81.1387 9.92853 81.6727 9.46251C82.1665 9.06668 82.7425 8.79823 83.354 8.67891C84.2834 8.51363 85.223 8.4184 86.1654 8.39396C87.0027 8.34409 87.6256 8.29779 88.034 8.24792ZM86.5466 15.7777C86.5665 15.1448 86.3519 14.5284 85.9476 14.0573C85.743 13.8402 85.4993 13.6678 85.2305 13.5501C84.9617 13.4324 84.6733 13.3718 84.3819 13.3718C84.0906 13.3718 83.8021 13.4324 83.5334 13.5501C83.2646 13.6678 83.0208 13.8402 82.8163 14.0573C82.4197 14.5399 82.2017 15.1554 82.2017 15.7919C82.2017 16.4284 82.4197 17.0439 82.8163 17.5265C83.0153 17.7434 83.2558 17.9138 83.5221 18.0268C83.7883 18.1397 84.0744 18.1926 84.3615 18.1819C84.6506 18.1887 84.9379 18.1331 85.2056 18.0185C85.4732 17.9039 85.7154 17.7328 85.917 17.5158C86.1274 17.2847 86.2915 17.0118 86.3996 16.7133C86.5078 16.4148 86.5577 16.0967 86.5466 15.7777Z" fill="#494746"/>
<path d="M91.4372 20.1705H90.271V11.6544H92.4084V16.6559L96.8856 11.6544H97.9355V20.1705H95.7982V15.2713L91.4372 20.1705Z" fill="#494746"/>
<path d="M104.766 17.0249L107.292 11.6544H108.65L110.71 20.1705H108.692L107.595 15.1726L105.143 20.1705H104.3L101.902 15.169L100.798 20.1705H98.7871L100.844 11.6544H102.205L104.766 17.0249Z" fill="#494746"/>
<path d="M114.373 14.722H114.96C115.598 14.6989 116.237 14.7677 116.859 14.9265C117.31 15.0725 117.703 15.3771 117.975 15.792C118.294 16.2717 118.455 16.8525 118.434 17.4427C118.454 18.0218 118.311 18.5938 118.023 19.0824C117.778 19.492 117.412 19.7987 116.984 19.9515C116.397 20.1154 115.791 20.1879 115.186 20.167H112.413V11.6544H114.386L114.373 14.722ZM114.373 18.5236H114.96C115.221 18.5349 115.482 18.5066 115.736 18.4396C115.901 18.3799 116.048 18.2696 116.157 18.1219C116.281 17.9628 116.346 17.7599 116.339 17.5522C116.339 16.8218 115.953 16.4566 115.179 16.4566H114.359L114.373 18.5236ZM119.807 11.6544H121.781V20.167H119.807V11.6544Z" fill="#494746"/>
<path d="M123.751 11.6544H126.109L127.719 13.9896L129.306 11.6544H131.625L128.875 15.668L132 20.1705H129.643L127.719 17.3792L125.803 20.1705H123.484L126.529 15.6826L123.751 11.6544Z" fill="#494746"/>
<path d="M55.3696 27.835H62.1678V30.0732H59.9103V39.7576H57.5384V30.0732H55.3549L55.3696 27.835Z" fill="#494746"/>
<path d="M62.1677 31.2415H64.4334L66.7313 36.7205L69.2627 31.2415H71.5355L66.0168 43.1641H63.726L65.5428 39.3341L62.1677 31.2415Z" fill="#494746"/>
<path d="M75.297 30.6251V31.6396C75.642 31.2437 76.052 30.9259 76.5045 30.7034C76.944 30.4933 77.4175 30.3866 77.8955 30.3901C78.4115 30.3834 78.9226 30.5011 79.3941 30.7354C79.8656 30.9697 80.2863 31.315 80.6276 31.7477C81.3922 32.7034 81.7952 33.9536 81.7517 35.2349C81.7853 36.5048 81.3666 37.7376 80.5875 38.6624C80.2433 39.0984 79.8196 39.4471 79.345 39.6851C78.8703 39.9231 78.3557 40.0449 77.8355 40.0424C77.3785 40.0489 76.925 39.9538 76.5012 39.7627C76.0486 39.5393 75.636 39.2259 75.2836 38.8377V43.1641H73.2388V30.6251H75.297ZM77.4652 32.516C77.1644 32.5074 76.8654 32.5694 76.5873 32.6979C76.3093 32.8263 76.0583 33.0185 75.8507 33.2619C75.6328 33.5214 75.4636 33.827 75.3531 34.1607C75.2425 34.4944 75.1928 34.8495 75.2069 35.2051C75.1927 35.5657 75.2422 35.9259 75.3527 36.2651C75.4632 36.6043 75.6324 36.9158 75.8507 37.1818C76.0574 37.4265 76.3082 37.6196 76.5865 37.7481C76.8648 37.8767 77.1643 37.9379 77.4652 37.9277C77.7608 37.932 78.0538 37.8665 78.3252 37.7354C78.5965 37.6042 78.84 37.4105 79.0397 37.1668C79.4852 36.6387 79.7252 35.9345 79.7069 35.2088C79.7318 34.4954 79.504 33.7999 79.0731 33.2731C78.8695 33.0252 78.6205 32.8292 78.343 32.6985C78.0655 32.5679 77.7661 32.5056 77.4652 32.516Z" fill="#494746"/>
<path d="M85.4736 39.7576H84.3097V31.2415H86.4387V36.2432L90.9097 31.2415H91.9742V39.7576H89.8452V34.8596L85.4736 39.7576Z" fill="#494746"/>
<path d="M102.193 33.2552L100.462 34.283C100.193 33.961 99.8661 33.7012 99.5009 33.5194C99.1453 33.3712 98.7661 33.2999 98.3849 33.3095C98.0404 33.2936 97.6964 33.3513 97.3728 33.4792C97.0491 33.6072 96.7522 33.8029 96.4991 34.055C96.262 34.3034 96.0755 34.6022 95.9516 34.9325C95.8278 35.2627 95.7692 35.6172 95.7797 35.9731C95.7688 36.3174 95.8247 36.6604 95.944 36.9801C96.0632 37.2998 96.2431 37.5892 96.4722 37.8297C96.7165 38.0739 97.0032 38.2636 97.3159 38.3878C97.6286 38.512 97.9611 38.5684 98.2941 38.5536C98.7037 38.5769 99.1128 38.4975 99.489 38.3217C99.8653 38.1458 100.198 37.8783 100.462 37.5402L102.103 38.7454C101.206 39.9903 99.9536 40.6116 98.3446 40.6092C96.8879 40.6092 95.7484 40.146 94.9259 39.2195C94.4526 38.7062 94.0975 38.0807 93.8892 37.3931C93.6809 36.7055 93.6252 35.9749 93.7265 35.2599C93.8279 34.5449 94.0834 33.8654 94.4726 33.2759C94.8619 32.6865 95.374 32.2034 95.968 31.8655C96.7089 31.4434 97.5367 31.2293 98.3748 31.243C99.1388 31.2233 99.8964 31.3968 100.587 31.7497C101.233 32.0949 101.787 32.6133 102.193 33.2552Z" fill="#494746"/>
<path d="M103.897 31.2415H112.413V33.2788H109.372V39.7576H107.078V33.2788H103.897V31.2415Z" fill="#494746"/>
<path d="M117.89 30.3899C118.725 30.3862 119.546 30.6231 120.269 31.0764C120.988 31.5163 121.587 32.1571 122.002 32.9326C122.418 33.7081 122.635 34.5901 122.632 35.4875C122.635 36.3915 122.419 37.2803 122.004 38.0639C121.601 38.8459 121.008 39.4928 120.29 39.9341C119.563 40.3853 118.739 40.6182 117.901 40.6088C117.292 40.6174 116.688 40.4902 116.126 40.2351C115.564 39.9799 115.056 39.6022 114.634 39.1253C114.185 38.6339 113.833 38.0489 113.598 37.4056C113.363 36.7623 113.25 36.0739 113.266 35.382C113.282 34.6901 113.427 34.0089 113.692 33.3795C113.957 32.75 114.337 32.1854 114.808 31.7195C115.642 30.8659 116.745 30.3903 117.89 30.3899ZM117.93 32.6823C117.605 32.6729 117.282 32.7384 116.981 32.8744C116.681 33.0104 116.41 33.2138 116.188 33.4714C115.955 33.7419 115.774 34.0596 115.655 34.4062C115.536 34.7529 115.481 35.1217 115.494 35.4915C115.464 36.2483 115.711 36.9872 116.18 37.5471C116.409 37.7978 116.681 37.9969 116.981 38.1327C117.28 38.2686 117.602 38.3385 117.927 38.3385C118.251 38.3385 118.573 38.2686 118.873 38.1327C119.173 37.9969 119.445 37.7978 119.673 37.5471C119.908 37.2734 120.091 36.9519 120.211 36.6012C120.331 36.2504 120.387 35.8773 120.374 35.5033C120.388 35.1319 120.335 34.761 120.216 34.4122C120.098 34.0634 119.917 33.7436 119.684 33.4714C119.459 33.2129 119.187 33.009 118.885 32.873C118.583 32.737 118.257 32.672 117.93 32.6823Z" fill="#494746"/>
<path d="M124.335 39.7543V31.2415H127.781C128.915 31.2415 129.682 31.4616 130.084 31.9019C130.473 32.306 130.69 32.8435 130.69 33.4025C130.699 33.7931 130.584 34.1766 130.361 34.4982C130.138 34.8199 129.817 35.0633 129.446 35.1936C130.58 35.5809 131.147 36.3082 131.147 37.3754C131.167 37.8908 131.009 38.3975 130.697 38.8104C130.411 39.1798 130.011 39.4459 129.558 39.5676C128.926 39.7104 128.279 39.7732 127.631 39.7543H124.335ZM126.489 34.592H127.321C127.618 34.6097 127.91 34.5159 128.14 34.3292C128.227 34.258 128.299 34.169 128.348 34.0682C128.398 33.9674 128.426 33.8571 128.429 33.7448C128.437 33.6086 128.416 33.4722 128.368 33.3443C128.32 33.2164 128.246 33.0997 128.15 33.0014C128.064 32.9162 127.962 32.8487 127.85 32.803C127.737 32.7573 127.617 32.7343 127.495 32.7352H127.217H126.489V34.592ZM126.489 38.1119H127.572C127.732 38.1279 127.894 38.11 128.046 38.0593C128.199 38.0087 128.339 37.9264 128.457 37.818C128.609 37.6637 128.7 37.4597 128.711 37.244C128.711 36.9647 128.609 36.6949 128.426 36.4833C128.287 36.3538 128.122 36.2558 127.941 36.1961C127.761 36.1364 127.569 36.1164 127.38 36.1376H126.478L126.489 38.1119Z" fill="#494746"/>
<defs>
<linearGradient id="paint0_linear_1_3373" x1="-0.00355079" y1="20.1649" x2="26.4191" y2="20.1649" gradientUnits="userSpaceOnUse">
<stop stop-color="#F87F3D"/>
<stop offset="1" stop-color="#FFB179"/>
</linearGradient>
</defs>
</svg>
