<svg width="20" height="23" viewBox="0 0 20 23" fill="none" xmlns="http://www.w3.org/2000/svg">
<path d="M15.2163 21.5625H4.78365C3.84674 21.5616 2.94846 21.184 2.28597 20.5125C1.62347 19.841 1.25089 18.9305 1.25 17.9809L1.25 14.911C1.25 14.6849 1.33864 14.468 1.49642 14.308C1.65421 14.1481 1.86821 14.0583 2.09135 14.0583C2.31449 14.0583 2.52848 14.1481 2.68627 14.308C2.84405 14.468 2.93269 14.6849 2.93269 14.911V17.9809C2.93358 18.4782 3.12888 18.9549 3.47581 19.3065C3.82274 19.6581 4.29302 19.8561 4.78365 19.857H15.2163C15.707 19.8561 16.1773 19.6581 16.5242 19.3065C16.8711 18.9549 17.0664 18.4782 17.0673 17.9809V5.01907C17.0664 4.52178 16.8711 4.04512 16.5242 3.69349C16.1773 3.34186 15.707 3.14391 15.2163 3.14301H4.78365C4.29302 3.14391 3.82274 3.34186 3.47581 3.69349C3.12888 4.04512 2.93358 4.52178 2.93269 5.01907V8.08898C2.93269 8.31515 2.84405 8.53205 2.68627 8.69197C2.52848 8.8519 2.31449 8.94174 2.09135 8.94174C1.86821 8.94174 1.65421 8.8519 1.49642 8.69197C1.33864 8.53205 1.25 8.31515 1.25 8.08898V5.01907C1.25089 4.06945 1.62347 3.15899 2.28597 2.48751C2.94846 1.81604 3.84674 1.4384 4.78365 1.4375L15.2163 1.4375C16.1533 1.4384 17.0515 1.81604 17.714 2.48751C18.3765 3.15899 18.7491 4.06945 18.75 5.01907V17.9809C18.7491 18.9305 18.3765 19.841 17.714 20.5125C17.0515 21.184 16.1533 21.5616 15.2163 21.5625V21.5625Z" fill="#494746"/>
<path d="M15.2163 21.5625H4.78365C3.84674 21.5616 2.94846 21.184 2.28597 20.5125C1.62347 19.841 1.25089 18.9305 1.25 17.9809L1.25 14.911C1.25 14.6849 1.33864 14.468 1.49642 14.308C1.65421 14.1481 1.86821 14.0583 2.09135 14.0583C2.31449 14.0583 2.52848 14.1481 2.68627 14.308C2.84405 14.468 2.93269 14.6849 2.93269 14.911V17.9809C2.93358 18.4782 3.12888 18.9549 3.47581 19.3065C3.82274 19.6581 4.29302 19.8561 4.78365 19.857H15.2163C15.707 19.8561 16.1773 19.6581 16.5242 19.3065C16.8711 18.9549 17.0664 18.4782 17.0673 17.9809V5.01907C17.0664 4.52178 16.8711 4.04512 16.5242 3.69349C16.1773 3.34186 15.707 3.14391 15.2163 3.14301H4.78365C4.29302 3.14391 3.82274 3.34186 3.47581 3.69349C3.12888 4.04512 2.93358 4.52178 2.93269 5.01907V8.08898C2.93269 8.31515 2.84405 8.53205 2.68627 8.69197C2.52848 8.8519 2.31449 8.94174 2.09135 8.94174C1.86821 8.94174 1.65421 8.8519 1.49642 8.69197C1.33864 8.53205 1.25 8.31515 1.25 8.08898V5.01907C1.25089 4.06945 1.62347 3.15899 2.28597 2.48751C2.94846 1.81604 3.84674 1.4384 4.78365 1.4375L15.2163 1.4375C16.1533 1.4384 17.0515 1.81604 17.714 2.48751C18.3765 3.15899 18.7491 4.06945 18.75 5.01907V17.9809C18.7491 18.9305 18.3765 19.841 17.714 20.5125C17.0515 21.184 16.1533 21.5616 15.2163 21.5625V21.5625Z" fill="url(#paint0_linear_1_3388)"/>
<path d="M13.0288 12.3527H2.09135C1.86821 12.3527 1.65421 12.2629 1.49642 12.103C1.33864 11.9431 1.25 11.7262 1.25 11.5C1.25 11.2738 1.33864 11.0569 1.49642 10.897C1.65421 10.7371 1.86821 10.6472 2.09135 10.6472H13.0288C13.252 10.6472 13.466 10.7371 13.6238 10.897C13.7816 11.0569 13.8702 11.2738 13.8702 11.5C13.8702 11.7262 13.7816 11.9431 13.6238 12.103C13.466 12.2629 13.252 12.3527 13.0288 12.3527Z" fill="#494746"/>
<path d="M13.0288 12.3527H2.09135C1.86821 12.3527 1.65421 12.2629 1.49642 12.103C1.33864 11.9431 1.25 11.7262 1.25 11.5C1.25 11.2738 1.33864 11.0569 1.49642 10.897C1.65421 10.7371 1.86821 10.6472 2.09135 10.6472H13.0288C13.252 10.6472 13.466 10.7371 13.6238 10.897C13.7816 11.0569 13.8702 11.2738 13.8702 11.5C13.8702 11.7262 13.7816 11.9431 13.6238 12.103C13.466 12.2629 13.252 12.3527 13.0288 12.3527Z" fill="url(#paint1_linear_1_3388)"/>
<path d="M8.99036 16.4461C8.87977 16.4465 8.7702 16.4247 8.66796 16.3819C8.56573 16.3392 8.47285 16.2764 8.39469 16.1971C8.23808 16.0362 8.15027 15.8193 8.15027 15.5933C8.15027 15.3673 8.23808 15.1504 8.39469 14.9896L11.8375 11.5001L8.39469 8.01062C8.2367 7.85049 8.14795 7.63332 8.14795 7.40687C8.14795 7.18042 8.2367 6.96324 8.39469 6.80312C8.55267 6.64299 8.76694 6.55304 8.99036 6.55304C9.21378 6.55304 9.42805 6.64299 9.58603 6.80312L13.6245 10.8963C13.7811 11.0572 13.8689 11.2741 13.8689 11.5001C13.8689 11.7261 13.7811 11.943 13.6245 12.1038L9.58603 16.1971C9.50787 16.2764 9.41499 16.3392 9.31275 16.3819C9.21052 16.4247 9.10095 16.4465 8.99036 16.4461Z" fill="#494746"/>
<path d="M8.99036 16.4461C8.87977 16.4465 8.7702 16.4247 8.66796 16.3819C8.56573 16.3392 8.47285 16.2764 8.39469 16.1971C8.23808 16.0362 8.15027 15.8193 8.15027 15.5933C8.15027 15.3673 8.23808 15.1504 8.39469 14.9896L11.8375 11.5001L8.39469 8.01062C8.2367 7.85049 8.14795 7.63332 8.14795 7.40687C8.14795 7.18042 8.2367 6.96324 8.39469 6.80312C8.55267 6.64299 8.76694 6.55304 8.99036 6.55304C9.21378 6.55304 9.42805 6.64299 9.58603 6.80312L13.6245 10.8963C13.7811 11.0572 13.8689 11.2741 13.8689 11.5001C13.8689 11.7261 13.7811 11.943 13.6245 12.1038L9.58603 16.1971C9.50787 16.2764 9.41499 16.3392 9.31275 16.3819C9.21052 16.4247 9.10095 16.4465 8.99036 16.4461Z" fill="url(#paint2_linear_1_3388)"/>
<defs>
<linearGradient id="paint0_linear_1_3388" x1="1.24765" y1="11.4988" x2="18.75" y2="11.4988" gradientUnits="userSpaceOnUse">
<stop stop-color="#F87F3D"/>
<stop offset="1" stop-color="#FFB179"/>
</linearGradient>
<linearGradient id="paint1_linear_1_3388" x1="1.2483" y1="11.4999" x2="13.8702" y2="11.4999" gradientUnits="userSpaceOnUse">
<stop stop-color="#F87F3D"/>
<stop offset="1" stop-color="#FFB179"/>
</linearGradient>
<linearGradient id="paint2_linear_1_3388" x1="8.14718" y1="11.499" x2="13.8689" y2="11.499" gradientUnits="userSpaceOnUse">
<stop stop-color="#F87F3D"/>
<stop offset="1" stop-color="#FFB179"/>
</linearGradient>
</defs>
</svg>
