<svg width="27" height="26" viewBox="0 0 27 26" fill="none" xmlns="http://www.w3.org/2000/svg">
<g clip-path="url(#clip0_1_3460)">
<path d="M13.6477 25.6521C20.7207 25.6521 26.4545 19.9183 26.4545 12.8453C26.4545 5.77226 20.7207 0.0384521 13.6477 0.0384521C6.57469 0.0384521 0.840881 5.77226 0.840881 12.8453C0.840881 19.9183 6.57469 25.6521 13.6477 25.6521Z" fill="#FF6800"/>
<path d="M13.0175 15.4622C12.025 15.3594 11.1302 15.1151 10.3634 14.5152C10.2662 14.4438 10.1728 14.3673 10.0837 14.286C9.93867 14.1568 9.84594 13.9789 9.82301 13.786C9.80008 13.5931 9.84853 13.3985 9.95924 13.2389C10.0699 13.0793 10.2352 12.9657 10.4239 12.9195C10.6126 12.8734 10.8117 12.8979 10.9836 12.9885C11.0605 13.0248 11.1338 13.0682 11.2026 13.1182C11.9129 13.6003 12.7498 13.8616 13.6082 13.8694C14.4666 13.8772 15.3082 13.6311 16.0271 13.162C16.1662 13.0509 16.326 12.9684 16.4972 12.9194C16.6551 12.8734 16.8239 12.8816 16.9766 12.9427C17.1293 13.0038 17.2571 13.1142 17.3398 13.2564C17.5504 13.5934 17.5471 13.9304 17.2892 14.1967C16.893 14.598 16.4139 14.9079 15.8855 15.105C15.3716 15.2893 14.8366 15.4087 14.2931 15.4605C14.3757 15.5498 14.4144 15.5936 14.4616 15.6459C15.1997 16.3873 15.9395 17.1237 16.6742 17.8685C16.7918 17.9744 16.8719 18.1156 16.9023 18.2709C16.9327 18.4263 16.9118 18.5872 16.8427 18.7296C16.7711 18.8852 16.6552 19.0161 16.5095 19.106C16.3638 19.196 16.1948 19.2409 16.0237 19.2352C15.8229 19.2184 15.636 19.1256 15.5013 18.9757C14.9436 18.4162 14.3774 17.8652 13.8314 17.2905C13.673 17.122 13.5972 17.1557 13.4573 17.2905C12.8956 17.8669 12.3283 18.4364 11.7553 18.9992C11.6491 19.1166 11.507 19.1955 11.3512 19.2235C11.1954 19.2516 11.0347 19.2272 10.8942 19.1543C10.7417 19.0835 10.6128 18.9701 10.5231 18.8278C10.4334 18.6855 10.3867 18.5204 10.3887 18.3522C10.4047 18.1441 10.5015 17.9506 10.6583 17.8129C11.3874 17.085 12.1176 16.3548 12.849 15.6223C12.9029 15.5886 12.9467 15.5414 13.0175 15.4622Z" fill="white"/>
<path d="M13.6224 12.9244C12.9803 12.9207 12.3537 12.7264 11.8221 12.3661C11.2906 12.0058 10.878 11.4958 10.6367 10.9007C10.3954 10.3056 10.3362 9.65223 10.4667 9.02347C10.5972 8.39472 10.9115 7.81887 11.3697 7.36896C11.8279 6.91905 12.4094 6.61534 13.0404 6.49634C13.6714 6.37734 14.3236 6.44841 14.9142 6.70054C15.5048 6.95268 16.0072 7.37451 16.3577 7.91255C16.7082 8.4506 16.8911 9.08062 16.8831 9.72272C16.872 10.5786 16.523 11.3955 15.9122 11.9952C15.3015 12.5949 14.4784 12.9289 13.6224 12.9244ZM15.2317 9.68059C15.231 9.36669 15.1372 9.06005 14.9621 8.79951C14.787 8.53898 14.5385 8.33627 14.2481 8.21708C13.9577 8.09788 13.6385 8.06756 13.3309 8.12994C13.0232 8.19233 12.741 8.34463 12.52 8.56753C12.299 8.79044 12.1491 9.07393 12.0893 9.3821C12.0296 9.69026 12.0626 10.0092 12.1843 10.2986C12.3059 10.588 12.5107 10.8347 12.7728 11.0076C13.0348 11.1804 13.3422 11.2717 13.6561 11.2697C13.864 11.269 14.0697 11.2273 14.2614 11.1471C14.4531 11.0668 14.6272 10.9495 14.7735 10.8019C14.9199 10.6543 15.0357 10.4793 15.1143 10.2869C15.1929 10.0945 15.2328 9.88845 15.2317 9.68059Z" fill="white"/>
</g>
<defs>
<clipPath id="clip0_1_3460">
<rect width="25.6136" height="25.6136" fill="white" transform="translate(0.840881 0.0384521)"/>
</clipPath>
</defs>
</svg>
