<svg width="26" height="26" viewBox="0 0 26 26" fill="none" xmlns="http://www.w3.org/2000/svg">
<g clip-path="url(#clip0_1_3455)">
<path d="M13.0341 25.6521C20.1071 25.6521 25.8409 19.9183 25.8409 12.8453C25.8409 5.77226 20.1071 0.0384521 13.0341 0.0384521C5.9611 0.0384521 0.227295 5.77226 0.227295 12.8453C0.227295 19.9183 5.9611 25.6521 13.0341 25.6521Z" fill="#4065D6"/>
<path d="M18.9404 16.5054C18.6404 16.5475 17.1828 16.5054 17.107 16.5054C16.7301 16.5092 16.3669 16.3645 16.0959 16.1027C15.7876 15.8061 15.5095 15.4792 15.2146 15.1708C15.1251 15.0768 15.0288 14.9895 14.9265 14.9096C14.6855 14.7259 14.4479 14.768 14.335 15.0511C14.2466 15.358 14.1857 15.6721 14.153 15.9898C14.1477 16.1236 14.0896 16.2498 13.9913 16.3408C13.8931 16.4318 13.7628 16.4801 13.6289 16.4751C13.4301 16.4852 13.2312 16.4902 13.0341 16.4852C12.3169 16.4815 11.6107 16.3082 10.9732 15.9796C10.285 15.595 9.68507 15.0703 9.21227 14.4395C8.45579 13.4406 7.80203 12.3679 7.26091 11.2377C7.23226 11.1805 6.66438 9.97223 6.6509 9.91662C6.61569 9.83745 6.61233 9.74776 6.64152 9.66617C6.6707 9.58459 6.73018 9.51737 6.80762 9.47849C6.90872 9.43974 8.78088 9.47849 8.81121 9.47849C8.95062 9.47717 9.0868 9.52044 9.19988 9.60198C9.31295 9.68353 9.397 9.79909 9.43976 9.93179C9.786 10.8145 10.2589 11.6421 10.8435 12.3887C10.925 12.4893 11.021 12.5773 11.1282 12.6499C11.1559 12.6766 11.1902 12.6954 11.2275 12.7044C11.2649 12.7134 11.304 12.7122 11.3407 12.7011C11.3775 12.6899 11.4106 12.6691 11.4367 12.6409C11.4627 12.6126 11.4807 12.5779 11.4888 12.5403C11.5629 12.2967 11.6065 12.0448 11.6186 11.7905C11.6287 11.2849 11.6186 10.9479 11.59 10.4424C11.6001 10.2701 11.542 10.1008 11.4281 9.9711C11.3142 9.84144 11.1538 9.76192 10.9816 9.7498C10.8333 9.72452 10.8131 9.60319 10.9159 9.48186C11.1131 9.23078 11.3861 9.19034 11.6826 9.17517C12.1309 9.1499 12.5808 9.17517 13.0307 9.17517H13.1285C13.326 9.17468 13.5231 9.19445 13.7166 9.23415C13.8297 9.25733 13.9323 9.31644 14.0092 9.40267C14.086 9.48891 14.1329 9.59766 14.1429 9.71272C14.1656 9.84005 14.1758 9.9693 14.1732 10.0986C14.1614 10.6496 14.1345 11.2007 14.1277 11.7534C14.1237 11.9717 14.1435 12.1898 14.1867 12.4038C14.2524 12.697 14.453 12.7712 14.6585 12.5572C14.9147 12.2822 15.1496 11.9882 15.3612 11.6776C15.7417 11.112 16.055 10.5041 16.2948 9.86607C16.4245 9.53916 16.5239 9.4667 16.8761 9.4667H18.8629C18.9814 9.46472 19.0996 9.48063 19.2134 9.51388C19.2535 9.52459 19.2911 9.54344 19.3237 9.56926C19.3562 9.59508 19.3831 9.62732 19.4027 9.66398C19.4223 9.70064 19.4342 9.74094 19.4376 9.78237C19.4409 9.8238 19.4357 9.86548 19.4223 9.90483C19.3062 10.3276 19.1068 10.7229 18.8359 11.0675C18.4315 11.6388 18.0068 12.1966 17.5923 12.7527C17.5398 12.8254 17.492 12.9014 17.4491 12.9801C17.294 13.2599 17.3058 13.4183 17.53 13.6542C17.8906 14.0249 18.2765 14.3737 18.6236 14.7546C18.8796 15.0321 19.1108 15.3315 19.3145 15.6494C19.5706 16.0605 19.4139 16.438 18.9404 16.5054Z" fill="white"/>
</g>
<defs>
<clipPath id="clip0_1_3455">
<rect width="25.6136" height="25.6136" fill="white" transform="translate(0.227295 0.0384521)"/>
</clipPath>
</defs>
</svg>
